<?xml version="1.0" standalone="no"?>
<!DOCTYPE svg PUBLIC "-//W3C//DTD SVG 20010904//EN"
 "http://www.w3.org/TR/2001/REC-SVG-20010904/DTD/svg10.dtd">
<svg version="1.0" xmlns="http://www.w3.org/2000/svg"
 width="821.000000pt" height="821.000000pt" viewBox="0 0 821.000000 821.000000"
 preserveAspectRatio="xMidYMid meet">
<metadata>
Created by potrace 1.11, written by Peter Selinger 2001-2013
</metadata>
<g transform="translate(0.000000,821.000000) scale(0.100000,-0.100000)"
fill="#000000" stroke="none">
<path d="M4470 7852 c-145 -64 -244 -192 -269 -351 -6 -35 -12 -65 -14 -67 -6
-6 -336 -52 -494 -69 l-152 -16 -34 25 c-26 20 -45 26 -85 26 -40 0 -52 -4
-52 -15 0 -9 -7 -18 -15 -21 -21 -8 -19 -24 3 -24 18 0 42 -37 42 -65 0 -8 -9
-15 -20 -15 -16 0 -20 7 -21 38 0 20 -3 32 -6 25 -3 -8 -12 -3 -27 14 -21 25
-24 25 -62 12 -21 -8 -41 -16 -44 -19 -3 -3 -23 -15 -45 -27 -33 -17 -86 -26
-290 -48 -137 -14 -284 -30 -325 -35 -41 -6 -80 -8 -86 -6 -5 2 -16 22 -22 43
-22 73 -84 155 -166 217 -42 33 -85 60 -94 61 -9 1 -26 6 -38 13 -55 29 -238
40 -324 18 -67 -17 -189 -79 -203 -103 -5 -8 -28 -36 -52 -63 -66 -74 -117
-189 -123 -276 -8 -129 35 -277 104 -351 13 -14 24 -30 24 -34 0 -13 132 -115
165 -127 86 -32 162 -44 250 -39 158 10 246 50 358 162 76 76 126 177 135 271
l7 69 100 17 c55 10 143 20 195 22 52 2 106 7 120 10 14 4 88 15 163 25 l137
17 0 -26 c0 -15 7 -40 15 -57 13 -27 13 -39 -9 -139 -14 -60 -27 -140 -31
-177 -3 -38 -13 -87 -21 -110 -24 -69 -41 -289 -25 -340 25 -84 33 -166 35
-377 1 -118 5 -231 9 -250 5 -19 12 -62 18 -95 5 -33 22 -112 37 -175 23 -102
26 -136 27 -295 0 -144 -4 -191 -17 -237 -20 -62 -23 -130 -8 -158 6 -12 6
-36 0 -68 -5 -27 -10 -126 -11 -218 -1 -129 -5 -175 -16 -192 -8 -13 -12 -30
-9 -38 3 -8 2 -22 -4 -32 -5 -9 -18 -49 -30 -89 -11 -40 -25 -75 -30 -78 -6
-3 -10 -37 -10 -75 0 -38 -4 -71 -9 -74 -14 -9 -44 -143 -37 -169 3 -14 -4
-38 -18 -64 -14 -23 -36 -83 -51 -133 -25 -86 -27 -102 -27 -308 0 -135 4
-238 12 -272 23 -107 30 -142 40 -228 13 -106 20 -133 30 -127 13 8 33 -113
26 -161 -4 -32 1 -74 15 -132 15 -62 19 -103 15 -147 -3 -33 -9 -157 -12 -276
l-6 -217 36 -147 c20 -80 36 -157 36 -170 0 -29 17 -42 23 -18 2 10 3 1 1 -19
-2 -20 3 -69 11 -109 9 -40 14 -87 13 -105 -1 -18 1 -36 5 -40 4 -4 7 9 7 29
0 37 20 51 36 25 4 -7 3 -8 -4 -4 -7 4 -12 2 -12 -4 0 -12 47 -36 55 -28 12
12 -9 38 -38 49 -23 8 -32 18 -33 35 -2 29 10 30 36 4 11 -11 30 -19 43 -19
l22 2 -23 4 c-18 4 -21 8 -12 18 9 10 6 15 -9 20 -26 8 -27 22 -3 28 16 4 16
5 0 6 -10 0 -18 8 -18 16 0 8 -7 15 -15 15 -9 0 -12 -6 -9 -15 4 -9 0 -15 -9
-15 -8 0 -17 11 -19 25 -3 15 -1 22 5 18 17 -11 140 -2 166 12 15 7 45 16 69
20 l42 7 1 -74 c1 -142 6 -223 18 -252 17 -42 24 -25 11 25 -7 24 -12 101 -11
170 1 151 -3 159 -75 139 -39 -11 -47 -11 -55 1 -7 11 -9 11 -9 -3 0 -11 -8
-18 -20 -18 -13 0 -20 7 -20 19 0 15 13 20 74 30 41 7 79 18 84 24 5 7 12 44
16 82 3 39 10 104 16 145 20 159 6 300 -41 430 -27 72 -28 60 22 260 18 75 30
157 34 235 6 102 13 138 46 237 21 65 47 158 56 208 10 49 23 90 28 90 13 0
89 -142 104 -195 32 -109 241 -525 264 -525 14 0 50 -84 72 -168 22 -86 47
-142 99 -217 24 -36 52 -87 61 -115 9 -27 21 -50 25 -50 5 0 7 -6 4 -14 -9
-23 43 -215 71 -262 15 -25 64 -92 111 -149 46 -57 84 -112 84 -122 0 -27 12
-39 45 -48 23 -6 26 -9 12 -13 -14 -3 -17 -10 -14 -25 19 -76 27 -98 51 -139
14 -24 26 -52 26 -61 0 -9 14 -30 30 -47 17 -17 30 -38 30 -46 0 -9 8 -29 17
-45 16 -27 16 -31 0 -64 -19 -39 -22 -65 -8 -65 5 0 8 -15 7 -32 -1 -26 3 -33
17 -32 11 1 17 -5 17 -20 0 -12 17 -39 40 -61 22 -21 40 -44 40 -50 0 -5 14
-16 30 -23 17 -8 30 -18 30 -24 0 -6 -6 -6 -15 2 -8 6 -24 13 -37 14 -13 2
-39 7 -58 11 -19 5 -43 8 -52 6 -10 -1 -18 3 -18 8 0 14 -37 14 -45 1 -3 -5
-18 -10 -33 -10 -21 0 -24 2 -12 10 11 7 6 10 -22 10 -20 0 -44 -3 -54 -7 -16
-6 -16 -7 2 -15 13 -6 8 -7 -18 -5 -21 2 -38 -1 -38 -5 0 -4 -10 -8 -22 -8
-17 0 -19 -3 -9 -9 11 -7 11 -9 0 -14 -8 -3 4 -3 26 0 22 3 47 10 57 14 9 5
29 4 47 -2 24 -9 29 -14 21 -24 -12 -14 -11 -14 110 -36 30 -6 69 -14 85 -19
17 -5 57 -14 90 -19 33 -5 100 -19 149 -29 55 -12 99 -17 115 -12 53 16 111
42 111 51 0 12 -6 11 -40 -6 -42 -22 -80 -21 -127 3 -47 24 -60 22 -15 -2 37
-20 9 -20 -31 0 -34 17 -117 93 -117 106 0 18 28 6 38 -16 11 -24 72 -74 72
-59 0 15 -92 103 -101 97 -5 -3 -12 1 -15 10 -3 8 -11 13 -17 10 -7 -2 -21 9
-32 25 -10 16 -23 29 -29 28 -5 -1 -13 9 -17 23 -4 14 -7 18 -8 10 -1 -10 -8
-7 -27 11 -24 25 -25 28 -11 55 8 16 12 35 10 42 -5 14 23 17 32 2 3 -5 1 -20
-5 -32 l-11 -23 17 22 c17 24 56 32 50 11 -1 -7 -1 -10 1 -5 3 4 15 7 28 7 13
0 27 5 30 10 4 6 -5 10 -19 10 -18 0 -26 5 -26 18 0 14 -2 15 -10 2 -12 -19
-66 -1 -64 22 1 9 -7 19 -18 21 -16 4 -17 3 -7 -9 7 -9 8 -14 1 -14 -6 0 -14
5 -17 10 -12 19 -26 11 -16 -9 6 -10 7 -21 3 -25 -3 -4 2 -4 12 0 15 6 17 4 9
-12 -6 -10 -8 -25 -5 -33 3 -8 0 -11 -7 -7 -7 5 -9 1 -4 -11 5 -17 5 -17 -12
-1 -12 11 -18 30 -17 52 1 20 -3 36 -9 36 -6 0 -6 7 1 21 14 26 -22 124 -57
154 -13 12 -23 32 -23 48 0 15 -4 27 -9 27 -5 0 -11 8 -15 18 -3 9 -8 22 -11
28 -4 7 6 10 27 8 l33 -3 -33 8 c-42 11 -48 17 -56 60 -5 27 -3 32 10 27 9 -3
33 -6 55 -6 42 0 53 -16 17 -23 -13 -2 0 -4 27 -4 28 0 40 2 27 4 -19 4 -21 7
-11 19 9 11 8 14 -2 14 -9 1 -8 6 5 15 16 12 17 18 8 27 -17 17 -15 28 6 28
25 1 109 42 95 47 -7 3 -27 -3 -45 -12 -47 -23 -113 -28 -128 -10 -7 9 -10 18
-6 22 3 4 13 -2 22 -13 15 -18 15 -18 11 4 -3 12 -1 23 4 23 29 4 99 36 120
55 15 13 14 21 -3 102 -67 318 -108 427 -199 526 -28 31 -55 54 -59 51 -4 -3
-6 4 -3 15 3 11 1 26 -5 33 -5 6 -13 28 -17 47 -4 19 -20 62 -36 95 -24 53
-27 68 -22 124 6 63 -12 249 -27 286 -5 11 -15 83 -23 161 -11 102 -24 165
-46 230 -17 49 -43 127 -57 174 -14 47 -34 99 -44 115 -9 17 -23 55 -30 85 -7
30 -32 96 -55 146 -37 79 -43 102 -49 188 -5 79 -3 109 10 148 9 27 14 60 11
74 -2 13 0 27 4 30 12 7 11 24 -1 24 -5 0 -12 -17 -15 -37 -11 -63 -28 -104
-37 -90 -5 8 -8 8 -8 1 0 -12 -146 10 -234 35 -22 6 -50 8 -63 5 -13 -4 -23
-4 -23 -1 0 12 60 65 61 54 1 -7 4 2 8 18 7 32 8 33 96 21 28 -3 76 -9 108
-12 39 -5 57 -11 57 -21 0 -24 19 -4 28 30 5 18 14 32 22 32 7 0 21 25 32 55
10 30 31 68 47 85 37 38 134 188 155 238 8 21 29 50 47 64 45 38 110 130 135
191 12 30 28 60 35 67 9 9 71 17 184 25 94 6 202 18 242 26 40 8 89 14 110 14
21 0 63 6 93 13 34 8 70 10 95 5 57 -11 308 1 384 18 35 8 73 12 83 8 21 -6
154 20 203 40 17 7 48 19 70 26 22 7 73 28 114 46 65 30 84 34 156 34 45 0
104 7 131 15 28 8 94 17 147 20 96 5 140 15 151 34 11 17 -30 31 -96 31 l-63
1 40 21 c56 29 105 78 105 105 0 29 -6 29 -72 -2 -59 -28 -82 -31 -75 -12 2 6
13 11 24 9 24 -3 106 56 111 80 5 25 -26 29 -71 9 -23 -11 -61 -24 -84 -30
-36 -10 -68 -31 -47 -31 13 0 77 22 120 42 22 10 46 18 52 18 40 0 -29 -59
-75 -64 -16 -2 -31 -4 -35 -5 -5 0 -7 -6 -5 -12 1 -6 -4 -14 -12 -17 -9 -3
-11 0 -6 8 5 9 4 11 -3 6 -7 -4 -10 -17 -8 -29 4 -27 26 -25 110 9 33 13 62
22 65 19 3 -3 -9 -19 -27 -36 -18 -16 -32 -26 -32 -22 0 4 -4 3 -8 -3 -4 -7
-18 -14 -32 -15 -14 -2 -33 -13 -43 -24 l-17 -20 6 20 c5 19 5 19 -6 2 -17
-26 0 -40 52 -43 24 -1 59 -2 78 -3 33 -2 34 -2 16 -16 -14 -11 -47 -15 -117
-15 -57 0 -113 -6 -136 -14 -45 -16 -81 -20 -170 -17 -53 1 -64 4 -74 22 -10
20 -9 21 12 15 76 -20 76 -20 53 -3 -11 9 -34 17 -50 19 -36 4 -54 40 -54 112
0 64 14 84 91 136 32 23 66 52 75 65 9 14 22 25 29 25 7 0 19 10 28 23 8 12
18 19 22 15 11 -11 -4 -45 -41 -89 -19 -22 -34 -50 -34 -61 0 -10 -4 -16 -10
-13 -6 3 -10 -4 -11 -17 0 -22 -1 -22 -9 -3 -7 17 -9 14 -9 -13 -1 -19 -5 -31
-11 -27 -5 3 -10 -3 -10 -14 0 -11 -4 -23 -10 -26 -13 -8 -13 -25 0 -25 14 0
69 84 85 130 8 22 26 52 40 67 26 28 49 89 39 105 -8 12 -52 10 -63 -4 -48
-60 -93 -106 -135 -134 -27 -18 -57 -45 -67 -60 -10 -15 -26 -29 -36 -30 -10
-2 -45 -8 -78 -16 -69 -14 -275 -16 -482 -4 -103 7 -150 6 -170 -3 -38 -16
-101 -16 -276 -1 -112 10 -151 10 -159 2 -9 -9 13 -12 94 -12 59 0 138 -7 176
-15 60 -12 77 -12 130 0 100 24 352 19 368 -7 3 -5 0 -16 -8 -25 -9 -11 -13
-50 -13 -129 0 -124 -7 -143 -59 -148 -26 -3 -26 -3 -9 17 16 19 14 18 -15 -2
-19 -13 -46 -24 -62 -25 -16 -1 -32 -5 -36 -9 -4 -4 -12 -7 -18 -7 -6 0 -2 7
8 15 11 8 20 24 21 35 1 14 -2 17 -9 10 -15 -15 -39 -13 -30 3 5 7 1 7 -10 -2
-10 -9 -20 -11 -24 -5 -9 12 -52 16 -52 5 0 -5 6 -12 13 -15 6 -3 3 -4 -8 -3
-11 1 -19 -3 -18 -8 1 -6 -9 -12 -23 -13 -13 -1 -24 2 -24 7 0 5 -10 7 -22 3
-16 -4 -19 -2 -13 8 5 8 4 11 -3 7 -17 -11 -44 4 -37 21 4 12 3 12 -9 3 -7 -6
-22 -8 -32 -5 -15 6 -17 4 -7 -6 10 -11 7 -18 -13 -37 -27 -24 -69 -32 -61
-10 2 6 15 11 28 10 13 -1 19 1 12 3 -7 3 -9 12 -6 20 3 7 9 11 14 8 5 -3 7
-10 4 -15 -3 -5 1 -6 10 -3 14 6 14 8 -1 19 -15 11 -15 13 7 28 13 10 20 17
15 17 -4 0 -27 -16 -50 -35 -52 -42 -75 -46 -26 -5 45 40 33 38 -16 -1 -22
-17 -50 -35 -63 -40 -13 -5 -21 -12 -18 -16 4 -3 18 2 33 11 36 25 42 13 6
-13 -33 -23 -52 -27 -52 -11 0 7 -6 7 -19 0 -29 -15 -35 -12 -20 7 10 12 4 11
-24 -6 -20 -12 -43 -21 -50 -18 -6 2 -27 -2 -45 -10 -19 -8 -31 -10 -28 -4 3
5 1 11 -6 13 -6 2 4 14 23 26 19 12 30 22 26 22 -4 0 -24 -11 -44 -25 -41 -27
-61 -24 -24 4 16 12 20 20 12 25 -6 4 -13 1 -16 -6 -3 -8 -16 -15 -28 -15 -22
-2 -22 -2 3 18 29 24 9 15 -33 -14 -27 -19 -31 -19 -63 -4 -20 10 -36 13 -39
7 -4 -6 13 -19 37 -29 24 -11 37 -20 30 -20 -7 -1 -11 -4 -9 -8 3 -5 -12 -8
-34 -9 -25 0 -36 3 -32 10 5 7 2 7 -8 0 -21 -17 -52 -14 -38 3 6 7 15 10 20 7
5 -3 9 0 9 6 0 6 4 9 9 5 5 -3 13 0 17 7 4 7 4 10 -1 6 -4 -4 -13 -3 -20 2 -8
7 -20 0 -40 -20 -16 -17 -33 -30 -39 -30 -6 0 9 19 32 43 23 24 40 46 37 50
-3 4 -2 5 2 2 8 -6 33 14 33 27 0 6 -8 4 -17 -3 -16 -13 -17 -12 -4 4 8 9 16
15 19 12 3 -3 17 5 31 17 21 19 23 20 11 3 -8 -11 -22 -30 -33 -41 -15 -18
-16 -22 -3 -27 8 -3 22 4 33 16 16 19 16 20 1 8 -31 -23 -19 4 15 36 31 29 67
40 67 20 0 -5 -6 -7 -14 -4 -14 6 -51 -31 -42 -41 4 -3 -4 -17 -16 -31 -13
-14 -1 -6 26 17 37 32 52 39 58 30 6 -9 8 -7 6 7 -2 14 3 21 18 23 12 2 30 13
40 25 13 14 14 18 3 9 -18 -14 -99 -13 -99 1 0 5 -6 5 -13 -2 -9 -7 -24 -8
-45 -2 -23 7 -32 6 -36 -5 -3 -8 -15 -14 -26 -14 -12 0 -19 4 -16 9 8 12 -18
8 -35 -5 -18 -13 -84 -44 -96 -44 -5 0 -16 -9 -26 -20 -9 -11 -24 -20 -32 -20
-8 0 -17 -11 -21 -25 -3 -14 -12 -26 -20 -26 -8 -1 -20 -2 -26 -3 -7 0 -14
-10 -15 -21 -2 -11 0 -15 3 -8 4 8 13 9 29 3 16 -6 27 -6 31 1 3 6 23 9 45 6
30 -3 42 0 59 18 11 11 20 25 20 29 0 5 -10 -3 -21 -18 -29 -36 -37 -25 -10
13 18 25 25 28 35 18 11 -10 9 -19 -13 -49 -14 -21 -32 -38 -38 -38 -7 0 -13
-4 -13 -10 0 -5 7 -10 15 -10 22 0 19 -13 -19 -94 -27 -59 -39 -74 -59 -78
-15 -3 -24 -1 -21 3 3 5 12 9 20 9 23 0 16 17 -20 47 -47 40 -86 164 -86 275
0 140 24 238 75 303 13 17 28 19 118 20 87 0 110 -4 155 -24 49 -22 52 -25 37
-41 -9 -10 -33 -20 -55 -23 -43 -6 -180 -65 -180 -78 0 -10 21 -2 100 35 30
14 66 26 79 26 13 0 38 9 56 20 21 13 59 22 109 26 42 4 76 11 76 17 0 6 -26
7 -71 3 -63 -7 -75 -5 -117 17 -73 38 -146 51 -253 43 -116 -9 -142 -9 -196 0
l-43 6 0 67 0 68 52 24 c59 27 210 167 191 175 -19 8 -16 25 4 22 39 -7 41
147 3 257 -28 83 -84 168 -143 219 -54 48 -130 80 -230 98 -50 8 -62 7 -85 -8
-15 -10 -48 -29 -75 -41 -26 -12 -50 -29 -53 -37 -3 -8 -37 -27 -75 -42 -46
-18 -69 -33 -69 -44 0 -22 20 -40 43 -40 11 0 25 -7 32 -17 7 -10 19 -14 29
-10 16 6 15 9 -3 28 -12 13 -26 19 -36 15 -17 -6 -55 9 -55 23 0 4 18 13 39
20 22 6 62 27 89 46 89 61 148 84 207 82 37 -1 51 -5 44 -13 -13 -16 0 -24 37
-24 28 0 45 -11 100 -64 52 -51 64 -69 59 -85 -3 -12 -13 -21 -21 -21 -8 0
-14 -7 -14 -15 0 -8 -4 -15 -10 -15 -14 0 -80 -71 -80 -87 0 -16 5 -16 31 -3
25 14 25 -2 -1 -25 -28 -26 -25 -45 7 -45 21 0 24 -3 15 -12 -20 -20 -14 -29
16 -25 39 6 71 -9 83 -39 8 -22 6 -31 -6 -43 -13 -14 -15 -12 -15 17 0 26 -5
35 -27 43 -15 6 -30 6 -35 1 -6 -6 4 -12 22 -16 27 -5 30 -9 24 -28 -4 -13 -8
-31 -9 -41 -1 -20 -45 -68 -45 -50 0 7 -15 9 -43 6 -31 -4 -46 -1 -56 11 -19
22 -34 20 -21 -3 10 -20 21 -25 80 -36 26 -5 31 -3 20 4 -13 10 -13 11 0 11
20 0 44 -16 34 -23 -5 -2 -24 -8 -41 -12 -51 -10 -48 -23 5 -19 l47 4 -38 -12
c-22 -7 -35 -16 -31 -20 4 -5 1 -8 -7 -9 -8 0 -25 -14 -38 -32 l-25 -32 30 28
c17 15 35 27 41 27 6 0 13 7 17 15 3 8 10 15 15 15 15 0 0 -40 -19 -50 -20
-11 -40 -80 -40 -138 0 -33 -4 -41 -22 -46 -39 -10 -179 -7 -219 5 -30 10 -42
9 -54 -1 -13 -11 -14 -10 -9 4 4 11 1 16 -10 16 -9 0 -22 5 -29 10 -7 6 -24
19 -39 31 -17 12 -28 30 -28 44 0 18 10 26 58 43 31 12 68 23 82 25 18 2 10 6
-24 12 -34 5 -55 4 -69 -4 -10 -7 -21 -10 -24 -7 -7 7 -33 -20 -33 -33 0 -6
-4 -11 -10 -11 -13 0 -13 4 5 46 8 20 13 39 11 43 -2 3 2 15 10 25 13 19 15
19 81 2 38 -10 77 -20 88 -22 l20 -5 -20 13 c-11 7 -40 18 -65 24 l-45 12 53
1 c30 0 52 6 52 12 0 6 -19 9 -48 8 -33 -2 -56 3 -72 14 -24 16 -21 17 70 17
96 0 106 8 37 30 -21 6 -50 22 -65 35 -29 24 -144 75 -170 75 -9 0 -24 8 -35
18 -11 9 -18 13 -16 7 35 -80 71 -146 92 -171 31 -36 33 -51 12 -78 -8 -11
-15 -32 -15 -48 0 -33 -24 -38 -40 -8 -6 11 -30 31 -55 45 -24 15 -47 35 -50
45 -3 10 -17 26 -31 35 -17 11 -23 22 -19 34 3 10 1 29 -4 42 -9 22 -10 21
-10 -11 -1 -55 -29 -151 -56 -192 -16 -23 -21 -39 -14 -44 6 -3 11 -4 13 -3 7
10 39 84 50 116 17 49 31 51 56 11 21 -35 27 -88 10 -88 -5 0 -10 -6 -10 -13
0 -13 -131 -179 -137 -173 -2 2 1 15 6 29 17 43 -3 39 -53 -12 -34 -35 -44
-51 -35 -56 7 -5 10 -4 6 2 -6 10 14 32 58 63 19 14 19 14 5 -5 -8 -11 -22
-27 -30 -35 -9 -8 -10 -11 -3 -6 29 19 23 -4 -9 -34 l-33 -32 39 31 c45 35 56
33 32 -4 -28 -43 -188 -146 -204 -131 -3 3 -11 -2 -18 -12 -8 -9 -14 -12 -14
-5 0 6 4 14 10 18 6 4 5 15 -2 30 -8 18 -8 28 1 39 7 8 10 20 6 26 -4 6 -1 18
7 27 7 9 8 14 2 10 -20 -12 -25 24 -8 51 10 15 11 21 3 17 -9 -6 -10 -3 -5 11
11 27 16 54 10 54 -3 0 -9 -10 -14 -22 -9 -23 -9 -23 -9 2 -1 31 18 61 26 43
2 -7 9 -13 14 -13 8 0 42 -26 75 -58 8 -8 15 -9 19 -2 4 6 9 9 13 7 4 -2 23
12 42 32 19 19 29 31 21 26 -9 -5 -12 -3 -9 6 3 8 13 16 23 17 12 3 15 0 10
-9 -6 -8 -4 -10 5 -4 8 5 11 3 8 -6 -3 -8 -21 -23 -41 -33 -20 -11 -35 -22
-32 -25 3 -2 -7 -18 -22 -35 -19 -22 -16 -20 12 7 23 20 46 37 52 37 6 0 16 7
23 15 7 9 19 14 26 11 7 -3 16 0 20 6 4 6 3 8 -3 5 -6 -4 -14 0 -17 9 -3 8 -2
12 4 9 5 -3 8 4 7 15 -1 13 -5 16 -11 10 -14 -14 -26 -12 -26 4 0 7 -15 18
-32 24 l-33 11 35 -4 35 -4 -40 13 c-34 11 -36 13 -17 18 12 4 22 11 22 17 0
9 -5 9 -21 1 -24 -14 -40 -4 -19 11 11 8 10 9 -7 4 -13 -3 -23 -2 -23 3 0 5 8
12 18 14 10 3 19 12 19 20 0 14 -5 14 -32 2 -28 -11 -33 -11 -48 6 -9 11 -14
27 -11 35 4 10 2 13 -8 10 -23 -9 -18 26 7 49 11 12 14 15 5 9 -36 -28 -55 -6
-23 25 16 16 15 17 -5 20 -27 4 -28 10 -4 29 16 14 16 14 0 9 -22 -7 -35 13
-17 25 11 7 9 9 -6 9 -20 1 -20 1 -1 15 18 13 18 15 3 15 -15 0 -16 4 -7 20 9
16 8 20 -5 20 -18 0 -20 16 -2 23 8 4 7 5 -3 6 -8 0 -24 -4 -35 -8 -19 -8 -19
-8 3 -15 22 -7 31 -26 12 -26 -5 0 -10 -7 -10 -15 0 -7 -8 -19 -17 -24 -17
-10 -17 -10 -1 -11 9 0 22 8 27 18 10 16 10 16 11 -1 0 -10 -7 -20 -15 -23 -8
-4 -12 -10 -9 -16 4 -5 10 -5 18 1 8 7 12 5 12 -9 0 -10 -4 -16 -8 -14 -4 3
-16 0 -25 -5 -12 -7 -13 -10 -4 -11 8 0 4 -8 -10 -21 -22 -19 -21 -19 9 1 27
18 36 20 45 10 7 -7 8 -11 2 -8 -5 3 -19 -4 -30 -15 l-20 -20 22 12 c32 16 33
15 18 -30 -13 -37 -13 -40 0 -29 12 10 15 10 15 -2 0 -8 -5 -19 -11 -25 -8 -8
-8 -13 0 -18 6 -3 10 -1 9 6 -2 6 2 13 9 16 8 3 11 -3 8 -16 -2 -12 1 -21 7
-21 6 0 6 -6 -2 -15 -11 -13 -10 -14 6 -9 12 4 4 -9 -21 -35 -34 -35 -35 -39
-13 -29 14 7 24 16 22 20 -3 4 5 12 17 18 17 10 20 9 15 -2 -3 -7 -9 -21 -12
-30 -8 -22 -55 -39 -70 -24 -9 8 -6 17 10 36 l21 25 -22 -19 c-13 -11 -24 -17
-24 -15 -4 11 -9 47 -13 80 -2 20 -7 42 -11 49 -5 8 -1 18 10 27 11 7 13 13 6
13 -7 0 -9 5 -5 12 5 7 3 8 -6 3 -21 -13 -31 17 -12 39 9 11 11 16 5 12 -23
-13 -38 6 -17 22 18 14 18 14 0 8 -14 -5 -17 -2 -12 9 3 8 0 15 -7 15 -9 0 -8
3 1 9 9 6 11 19 7 44 -6 33 -4 38 19 48 14 7 23 16 20 20 -3 5 0 9 5 9 6 0 11
-5 11 -11 0 -5 5 -7 11 -3 8 4 7 9 -2 16 -10 6 -7 7 9 3 16 -5 22 -2 22 9 0
10 -6 13 -17 9 -17 -6 -17 -5 0 14 23 27 22 40 -3 18 -11 -10 -20 -23 -20 -29
0 -7 -13 -20 -30 -29 -25 -15 -30 -16 -30 -4 0 8 12 18 27 22 21 5 24 8 13 15
-9 5 -19 5 -26 -1 -9 -8 -12 -1 -10 28 1 21 -1 55 -5 76 -5 29 -2 43 14 65 11
15 14 21 7 15 -20 -18 -30 -16 -30 6 0 29 11 52 22 45 5 -3 4 -12 -4 -22 -8
-10 -9 -13 -1 -9 13 8 45 67 35 66 -18 -3 -35 2 -29 7 4 4 -2 14 -12 24 -14
12 -20 32 -22 76 -2 32 1 65 5 73 6 10 5 12 -2 7 -16 -10 -15 16 1 34 10 12 9
12 -4 2 -14 -11 -17 -8 -22 15 -3 16 0 34 6 42 10 12 9 13 -2 6 -11 -6 -13 -4
-8 10 4 9 2 23 -4 31 -7 9 -7 19 2 36 7 13 13 34 14 48 1 14 6 34 10 45 14 39
15 46 5 40 -15 -9 -12 11 3 23 8 6 49 7 117 1 57 -4 106 -6 109 -4 2 3 -3 13
-11 22 -23 27 -30 43 -20 43 5 0 17 -16 28 -35 17 -32 51 -51 41 -22 -2 6 3
17 10 22 12 9 12 23 3 80 -6 39 -12 113 -14 165 -1 52 -6 101 -10 109 -6 9 -4
18 5 25 8 6 22 23 31 38 10 14 26 29 37 33 26 8 52 50 55 88 1 17 7 32 12 33
80 17 525 76 574 76 40 1 50 -4 56 -28 10 -40 96 -165 143 -207 112 -101 352
-148 482 -95 76 31 117 58 187 123 111 103 149 203 137 365 -4 56 -12 101 -20
110 -7 8 -18 34 -24 57 -15 55 -85 131 -160 174 -161 90 -155 88 -286 88 -117
0 -122 -1 -205 -37z m319 -8 c2 -2 -13 -5 -35 -5 -36 -1 -35 -2 15 -10 30 -5
68 -16 84 -24 41 -20 47 -18 18 5 -13 11 -34 20 -47 20 -13 0 -24 5 -24 10 0
19 37 10 72 -18 19 -15 33 -32 31 -38 -2 -7 19 -28 47 -49 27 -20 50 -38 50
-39 0 -2 -34 -39 -77 -82 -42 -43 -72 -72 -68 -64 5 8 35 43 68 77 53 55 69
84 42 75 -12 -4 -20 -11 -114 -102 -69 -66 -73 -72 -55 -85 15 -11 16 -16 7
-26 -9 -9 -15 -9 -26 0 -8 6 -22 9 -31 5 -12 -5 -15 -2 -10 10 4 11 1 16 -11
16 -9 0 -14 -4 -11 -8 9 -15 -10 -33 -28 -26 -15 6 -15 7 1 20 17 13 17 13 -2
14 -11 0 -27 5 -35 11 -11 7 -4 8 25 4 l40 -6 -35 16 c-28 13 -32 18 -20 26
11 8 8 9 -13 6 -26 -4 -28 -2 -24 19 2 13 -1 26 -7 29 -6 3 1 3 17 0 15 -3 27
-1 27 5 0 5 -6 9 -12 8 -7 -2 -13 4 -13 12 0 10 9 14 25 13 14 -1 18 0 8 3
-17 5 -26 35 -10 33 27 -4 44 2 38 16 -3 10 1 15 12 16 14 0 14 2 -3 9 -18 8
-17 9 8 9 32 1 36 16 7 24 -16 4 -25 -3 -41 -31 -11 -21 -17 -27 -14 -14 4 13
2 22 -5 22 -6 0 -8 5 -4 11 3 6 -5 3 -20 -6 -25 -17 -39 -44 -14 -29 7 5 9 2
5 -9 -3 -9 -1 -18 6 -20 7 -2 8 -8 3 -13 -5 -5 -11 -4 -13 4 -3 6 -9 10 -14 7
-5 -4 -6 2 -3 12 5 16 4 16 -10 -1 -20 -25 -20 -18 -1 21 15 29 55 73 55 59 0
-4 10 0 21 8 12 8 28 12 35 9 8 -3 14 -1 14 4 0 12 -38 14 -45 3 -3 -5 -12 -7
-19 -4 -14 5 -96 -80 -96 -100 0 -6 -5 -4 -10 4 -9 13 -12 12 -25 -4 -8 -11
-15 -15 -15 -10 0 14 45 56 52 49 3 -3 18 9 34 27 35 40 81 74 109 80 19 5 76
-1 84 -8z m-185 -37 c-22 -24 -43 -41 -48 -39 -5 3 6 18 25 33 34 28 34 28 9
30 -20 1 -18 3 10 9 19 4 37 8 39 9 2 0 -14 -18 -35 -42z m-64 2 c-14 -11 -35
-33 -48 -47 -15 -18 -20 -20 -13 -7 14 29 60 75 74 75 7 -1 1 -10 -13 -21z
m480 -80 c19 -35 6 -42 -18 -10 -18 24 -19 31 -8 31 9 0 20 -9 26 -21z m-532
-51 c-8 -12 -21 -24 -29 -26 -8 -3 -3 7 10 22 30 32 39 34 19 4z m130 -12 c-2
-1 -16 -10 -32 -20 l-29 -18 19 25 c10 13 25 22 32 20 7 -3 12 -6 10 -7z m383
-35 c-31 -57 -151 -194 -151 -172 0 5 7 14 15 21 14 12 14 15 -1 31 -10 11
-12 19 -6 19 6 0 15 -8 20 -17 9 -15 13 -13 36 13 14 16 40 50 57 77 31 47 49
64 30 28z m-585 -26 c-11 -8 -22 -12 -25 -9 -6 6 19 24 34 24 6 -1 1 -7 -9
-15z m605 -12 c-12 -20 -14 -14 -5 12 4 9 9 14 11 11 3 -2 0 -13 -6 -23z
m-556 7 c-3 -5 -16 -15 -28 -21 -21 -10 -21 -9 2 10 25 23 36 27 26 11z m530
-59 c-8 -17 -19 -33 -25 -36 -5 -3 -1 10 11 29 25 43 36 48 14 7z m-3075 16
c0 -2 -14 -16 -32 -33 l-32 -29 25 32 c20 27 39 41 39 30z m84 -26 c3 -5 -1
-12 -10 -15 -8 -3 -12 -10 -9 -16 4 -7 13 -6 27 1 16 9 19 8 16 -3 -3 -8 -17
-12 -36 -11 -17 2 -34 -2 -37 -7 -3 -6 -15 -10 -27 -10 -17 0 -18 2 -8 15 7 8
18 15 26 15 7 0 16 5 20 12 5 7 2 9 -7 4 -8 -4 -5 0 5 8 23 18 32 20 40 7z
m126 -12 c7 -11 17 -18 24 -16 7 3 18 -4 25 -15 6 -10 17 -18 24 -15 7 2 18
-3 25 -12 10 -14 11 -13 6 4 -5 14 -4 17 4 10 14 -14 41 -99 33 -105 -4 -3
-15 -21 -24 -40 l-18 -35 7 36 c4 27 1 40 -11 53 -23 22 -27 17 -16 -22 7 -23
6 -31 -2 -29 -8 1 -12 -14 -12 -40 -1 -24 3 -43 7 -43 4 0 8 5 8 12 0 6 2 9 5
6 3 -3 -2 -24 -11 -47 -9 -23 -19 -40 -21 -37 -3 2 1 14 7 26 10 18 9 25 -4
38 -14 14 -16 13 -26 -12 -5 -15 -8 -37 -6 -49 1 -12 1 -16 -1 -9 -3 7 -9 10
-14 7 -5 -4 -9 0 -9 7 -1 18 -31 52 -58 67 -19 10 -22 9 -22 -9 0 -24 0 -24
-36 -5 -17 9 -30 11 -32 5 -5 -14 -34 -12 -55 4 -12 9 -14 16 -8 21 6 3 11 1
11 -4 0 -6 9 -11 20 -11 11 0 20 5 20 10 0 6 -5 10 -11 10 -5 0 -8 4 -4 9 3 5
-5 11 -17 13 -12 2 -23 9 -26 16 -5 15 77 10 87 -5 9 -15 51 -35 51 -25 0 4
-6 14 -12 21 -11 11 -9 11 7 2 11 -6 30 -18 43 -27 12 -9 22 -14 22 -11 0 3
-21 20 -47 38 -25 18 -43 27 -39 21 4 -7 1 -12 -8 -12 -8 0 -20 9 -27 21 -7
14 -17 19 -30 16 -11 -3 -16 -1 -13 5 4 6 0 14 -7 19 -11 7 -11 11 -1 21 10
10 14 10 21 -1 7 -10 10 -10 16 -1 9 15 -14 32 -33 25 -8 -3 -20 -5 -28 -5 -8
0 -14 -5 -14 -11 0 -5 5 -7 10 -4 6 3 10 2 10 -3 0 -10 -23 -22 -41 -22 -6 0
-3 10 6 23 15 22 105 53 105 36 0 -5 5 -9 11 -9 8 0 7 5 -1 15 -7 9 -19 14
-27 11 -7 -3 -13 -1 -13 4 0 6 12 10 28 10 27 1 55 16 63 35 2 6 6 9 9 8 30
-9 45 -6 44 10 -2 23 13 22 26 -4z m-200 -4 c-7 -9 -15 -13 -19 -10 -3 3 1 10
9 15 21 14 24 12 10 -5z m3110 -42 c0 -7 -4 -13 -10 -13 -5 0 -10 12 -10 28 0
21 2 24 10 12 5 -8 10 -21 10 -27z m-422 18 c8 -5 -12 -11 -54 -15 -67 -7 -90
-2 -65 13 17 11 103 13 119 2z m-2768 -20 c0 -5 -11 -11 -25 -13 -26 -5 -35 6
-12 15 20 9 37 8 37 -2z m2845 -11 c3 -5 -1 -10 -10 -10 -9 0 -13 5 -10 10 3
6 8 10 10 10 2 0 7 -4 10 -10z m-2755 -4 c0 -3 -4 -8 -10 -11 -5 -3 -10 -1
-10 4 0 6 5 11 10 11 6 0 10 -2 10 -4z m2290 -6 c0 -5 -4 -10 -10 -10 -5 0
-10 5 -10 10 0 6 5 10 10 10 6 0 10 -4 10 -10z m-2500 -4 c0 -2 -8 -10 -17
-17 -16 -13 -17 -12 -4 4 13 16 21 21 21 13z m2900 -6 c0 -5 -2 -10 -4 -10 -3
0 -8 5 -11 10 -3 6 -1 10 4 10 6 0 11 -4 11 -10z m150 -22 c0 -5 -4 -8 -10 -8
-5 0 -10 10 -10 23 0 18 2 19 10 7 5 -8 10 -18 10 -22z m-172 6 c9 -17 4 -74
-8 -74 -4 0 -6 12 -4 28 2 15 1 20 -2 11 -5 -17 -74 -24 -74 -7 0 6 -6 5 -15
-2 -8 -7 -24 -10 -35 -7 -11 3 -20 1 -20 -4 0 -6 -21 -10 -47 -10 -27 1 -93
-1 -148 -3 -79 -4 -88 -3 -42 3 32 5 61 11 64 15 10 10 -43 7 -151 -9 -55 -8
-171 -19 -256 -25 -85 -6 -157 -13 -159 -16 -3 -2 53 -1 124 2 121 7 129 6
113 -9 -9 -10 -25 -17 -35 -16 -16 0 -16 1 2 9 19 8 19 9 -1 9 -12 1 -24 -6
-28 -14 -3 -8 -10 -15 -15 -15 -6 0 -8 6 -5 14 4 11 -6 11 -53 4 -31 -5 -60
-12 -63 -16 -8 -10 -80 -11 -80 0 0 5 -9 4 -19 -2 -35 -18 -78 -12 -84 12 -4
12 -2 25 4 29 6 3 63 11 127 18 176 18 278 31 369 47 45 8 101 14 125 13 46
-3 350 21 357 27 11 10 51 2 59 -12z m-2988 -64 c-11 -22 -23 -40 -25 -40 -3
0 4 18 15 40 11 22 23 40 25 40 3 0 -4 -18 -15 -40z m230 20 c-6 -11 -13 -20
-16 -20 -2 0 0 9 6 20 6 11 13 20 16 20 2 0 0 -9 -6 -20z m1642 -16 c50 -35
58 -50 64 -128 5 -58 3 -66 -21 -95 -15 -17 -33 -31 -41 -31 -7 0 -20 -13 -28
-29 -23 -44 -116 -53 -116 -10 0 13 -5 16 -16 12 -8 -3 -13 -11 -11 -17 3 -7
-4 -13 -14 -13 -21 -2 -24 8 -9 23 7 7 6 11 -4 11 -8 0 -18 -7 -21 -15 -10
-26 -37 22 -29 52 5 20 13 25 60 31 39 5 54 11 54 22 0 18 38 56 66 67 14 5
12 0 -9 -21 -27 -29 -35 -53 -18 -53 5 0 12 11 15 25 3 13 16 30 29 36 31 17
38 30 31 64 -9 43 -22 55 -60 55 -30 0 -45 16 -29 31 15 16 72 7 107 -17z
m1533 -23 c-4 -17 -11 -31 -16 -31 -12 0 -11 12 1 46 14 35 24 24 15 -15z
m-3105 25 c0 -2 -8 -10 -17 -17 -16 -13 -17 -12 -4 4 13 16 21 21 21 13z m382
-22 c-3 -16 1 -29 9 -34 11 -7 8 -23 -13 -83 -15 -43 -24 -85 -21 -100 4 -22
2 -26 -10 -21 -10 3 -18 -2 -22 -15 -3 -12 -10 -21 -14 -21 -5 0 2 21 15 47
13 25 24 52 24 59 0 7 9 33 20 58 11 27 15 48 9 51 -5 4 -13 -4 -18 -17 -6
-16 -8 -8 -6 31 1 44 12 68 31 71 1 0 -1 -12 -4 -26z m2498 16 c0 -5 -5 -10
-11 -10 -5 0 -7 5 -4 10 3 6 8 10 11 10 2 0 4 -4 4 -10z m-2928 -22 c-7 -7
-12 -8 -12 -2 0 14 12 26 19 19 2 -3 -1 -11 -7 -17z m2678 12 c0 -5 -7 -10
-15 -10 -8 0 -15 5 -15 10 0 6 7 10 15 10 8 0 15 -4 15 -10z m310 0 c0 -5 -2
-10 -4 -10 -3 0 -8 5 -11 10 -3 6 -1 10 4 10 6 0 11 -4 11 -10z m-367 -7 c-7
-2 -19 -2 -25 0 -7 3 -2 5 12 5 14 0 19 -2 13 -5z m-1168 -33 c18 -34 19 -60
4 -60 -16 0 -38 31 -39 55 0 17 -2 17 -10 5 -8 -13 -10 -13 -10 1 0 39 34 39
55 -1z m675 20 c0 -5 -7 -10 -16 -10 -8 0 -12 5 -9 10 3 6 10 10 16 10 5 0 9
-4 9 -10z m50 6 c0 -3 -4 -8 -10 -11 -5 -3 -10 -1 -10 4 0 6 5 11 10 11 6 0
10 -2 10 -4z m67 -2 c-3 -3 -12 -4 -19 -1 -8 3 -5 6 6 6 11 1 17 -2 13 -5z
m280 0 c-3 -3 -12 -4 -19 -1 -8 3 -5 6 6 6 11 1 17 -2 13 -5z m-942 -13 c3 -5
1 -13 -5 -16 -15 -9 -43 3 -35 15 8 13 32 13 40 1z m-197 -26 c17 -36 15 -53
-9 -83 l-21 -27 7 28 c9 36 -2 77 -21 77 -12 0 -13 3 -2 15 19 21 33 18 46
-10z m-1692 -11 c-4 -9 -9 -15 -11 -12 -3 3 -3 13 1 22 4 9 9 15 11 12 3 -3 3
-13 -1 -22z m3264 22 c0 -3 -4 -8 -10 -11 -5 -3 -10 -1 -10 4 0 6 5 11 10 11
6 0 10 -2 10 -4z m-2975 -16 c-3 -5 -10 -10 -16 -10 -5 0 -9 5 -9 10 0 6 7 10
16 10 8 0 12 -4 9 -10z m1978 3 c-7 -2 -19 -2 -25 0 -7 3 -2 5 12 5 14 0 19
-2 13 -5z m-403 -13 c0 -5 -2 -10 -4 -10 -3 0 -8 5 -11 10 -3 6 -1 10 4 10 6
0 11 -4 11 -10z m1659 -32 c-13 -18 -32 -50 -41 -71 -10 -21 -22 -36 -26 -33
-11 7 -54 -32 -48 -43 10 -15 -38 -49 -111 -80 -40 -16 -73 -26 -73 -21 0 5 9
12 20 15 11 4 18 10 15 14 -6 12 94 52 109 44 6 -3 8 -3 4 2 -4 4 23 40 61 80
37 40 76 86 87 103 10 17 20 30 22 27 2 -2 -6 -19 -19 -37z m-2710 20 c0 -7
-4 -22 -9 -33 -7 -17 -9 -15 -9 13 -1 17 4 32 9 32 6 0 10 -6 9 -12z m808 -3
c0 -11 -4 -12 -14 -3 -11 8 -12 7 -7 -6 3 -9 2 -16 -2 -16 -5 0 -49 -5 -99
-10 -49 -6 -105 -11 -123 -12 -18 -1 -28 -5 -21 -9 24 -14 -3 -31 -41 -25 -33
5 -146 -4 -238 -20 -23 -3 -32 -2 -27 5 3 6 2 11 -3 11 -6 0 -12 -7 -16 -15
-3 -8 -18 -15 -33 -15 -22 0 -25 2 -13 10 13 8 13 10 -2 10 -9 0 -18 -4 -20
-10 -1 -5 -13 -7 -26 -3 -33 8 -24 37 13 40 17 2 62 7 100 13 39 6 162 19 274
30 112 12 220 25 240 29 53 13 58 13 58 -4z m188 -25 c3 -5 1 -10 -4 -10 -6 0
-11 5 -11 10 0 6 2 10 4 10 3 0 8 -4 11 -10z m-1458 -6 c-3 -3 -12 -4 -19 -1
-8 3 -5 6 6 6 11 1 17 -2 13 -5z m98 -4 c3 -5 1 -10 -4 -10 -6 0 -11 5 -11 10
0 6 2 10 4 10 3 0 8 -4 11 -10z m229 -67 c-19 -43 -42 -85 -50 -93 -8 -8 -3 6
11 32 15 26 24 52 20 58 -3 5 -2 10 4 10 5 0 15 16 21 35 6 19 16 35 21 35 4
0 -7 -35 -27 -77z m916 58 c0 -5 -26 -12 -57 -15 -32 -4 -80 -9 -108 -12 -92
-11 -39 6 61 20 55 8 100 14 102 15 1 0 2 -3 2 -8z m1268 -10 c3 -8 -1 -12 -9
-9 -7 2 -15 10 -17 17 -3 8 1 12 9 9 7 -2 15 -10 17 -17z m-2043 -46 c-3 -26
-8 -45 -11 -43 -2 3 -1 26 2 52 4 25 9 44 12 42 2 -3 1 -26 -3 -51z m900 45
c3 -5 1 -10 -4 -10 -6 0 -11 5 -11 10 0 6 2 10 4 10 3 0 8 -4 11 -10z m1545
-9 c0 -6 -4 -13 -10 -16 -5 -3 -10 1 -10 9 0 9 5 16 10 16 6 0 10 -4 10 -9z
m122 -44 c-23 -23 -56 -51 -74 -60 -30 -16 -31 -16 -8 -1 14 10 45 39 70 65
25 26 47 45 49 43 3 -3 -14 -24 -37 -47z m-3103 27 c6 4 11 2 11 -4 0 -17 -33
-8 -37 10 -4 12 -3 13 5 1 5 -7 15 -10 21 -7z m221 -36 c0 -24 -5 -23 -24 7
-20 31 -10 58 11 30 7 -11 13 -27 13 -37z m-64 33 c-3 -5 1 -14 10 -22 8 -7
20 -22 25 -33 7 -13 -1 -9 -20 12 -32 33 -39 52 -20 52 5 0 8 -4 5 -9z m2789
0 c3 -5 1 -12 -5 -16 -5 -3 -10 1 -10 9 0 18 6 21 15 7z m-2665 -27 c0 -8 -6
-11 -15 -8 -8 4 -15 12 -15 20 0 8 6 11 15 8 8 -4 15 -12 15 -20z m212 -18
c-6 -19 -9 -43 -8 -53 2 -10 1 -12 -1 -5 -3 7 -8 10 -12 8 -4 -3 0 17 8 44 17
56 28 61 13 6z m505 28 c-3 -3 -12 -4 -19 -1 -8 3 -5 6 6 6 11 1 17 -2 13 -5z
m-137 -14 c0 -5 -9 -10 -19 -10 -11 0 -26 -3 -35 -6 -9 -3 -16 -1 -16 4 0 6
12 13 28 15 15 2 30 5 35 6 4 0 7 -3 7 -9z m44 3 c-5 -5 -12 -12 -15 -16 -3
-5 -9 -2 -12 7 -5 12 0 16 15 16 12 0 17 -3 12 -7z m2006 3 c0 -3 -4 -8 -10
-11 -5 -3 -10 -1 -10 4 0 6 5 11 10 11 6 0 10 -2 10 -4z m-2130 -16 c0 -5 -6
-10 -14 -10 -8 0 -21 -3 -30 -6 -9 -3 -16 -1 -16 4 0 9 9 13 53 21 4 0 7 -3 7
-9z m-70 -12 c0 -4 -6 -9 -12 -9 -7 -1 -23 -3 -35 -4 -27 -3 -31 12 -5 17 29
6 52 4 52 -4z m1796 -9 c19 -22 19 -22 -3 -10 -13 6 -23 16 -23 21 0 15 5 12
26 -11z m654 -4 c-7 -8 -17 -15 -23 -15 -5 0 -2 9 8 20 21 23 35 19 15 -5z
m-2857 0 c-3 -9 -8 -14 -10 -11 -3 3 -2 9 2 15 9 16 15 13 8 -4z m2252 -5 c10
-11 16 -20 13 -20 -3 0 -13 9 -23 20 -10 11 -16 20 -13 20 3 0 13 -9 23 -20z
m225 -15 c6 3 10 1 10 -4 0 -14 -37 -14 -45 -1 -3 6 -16 10 -29 10 -13 0 -23
6 -23 14 0 12 8 11 39 -5 21 -11 43 -17 48 -14z m240 25 c0 -5 -4 -10 -10 -10
-5 0 -10 5 -10 10 0 6 5 10 10 10 6 0 10 -4 10 -10z m-3017 -7 c-7 -2 -19 -2
-25 0 -7 3 -2 5 12 5 14 0 19 -2 13 -5z m2954 -23 c-4 -17 -2 -20 16 -16 13 4
9 0 -8 -9 -16 -8 -41 -14 -55 -14 -23 0 -23 1 -5 9 12 4 27 15 35 25 12 15 11
16 -16 10 -23 -4 -25 -3 -9 4 34 16 48 13 42 -9z m-301 -6 c18 -14 18 -14 -6
-3 -31 14 -36 19 -24 19 6 0 19 -7 30 -16z m-2488 -30 c-4 -3 -12 5 -18 18
-12 22 -12 22 6 6 10 -10 15 -20 12 -24z m146 21 c-4 -8 -10 -12 -15 -9 -11 6
-2 24 11 24 5 0 7 -7 4 -15z m108 -15 c-4 -28 -22 -53 -22 -31 0 12 18 61 23
61 2 0 2 -14 -1 -30z m-322 -20 c-11 -37 -19 -50 -31 -50 -15 0 -10 20 12 51
26 37 30 37 19 -1z m450 22 c0 -5 -7 -17 -15 -28 -14 -18 -14 -17 -4 9 12 27
19 34 19 19z m2160 -2 c13 -8 13 -10 -2 -10 -9 0 -20 5 -23 10 -8 13 5 13 25
0z m-2702 -24 c3 -13 -1 -17 -14 -14 -11 2 -20 11 -22 22 -3 13 1 17 14 14 11
-2 20 -11 22 -22z m362 -1 c-7 -9 -15 -13 -18 -10 -3 2 1 11 8 20 7 9 15 13
18 10 3 -2 -1 -11 -8 -20z m2430 -5 c-20 -13 -33 -13 -25 0 3 6 14 10 23 10
15 0 15 -2 2 -10z m-2590 -19 c-11 -21 -30 -37 -30 -25 0 8 30 44 37 44 2 0
-1 -9 -7 -19z m420 -1 c0 -5 -2 -10 -4 -10 -3 0 -8 5 -11 10 -3 6 -1 10 4 10
6 0 11 -4 11 -10z m940 -12 c0 -17 -3 -19 -9 -9 -5 8 -14 10 -21 6 -8 -5 -11
-4 -6 3 3 5 0 13 -6 15 -7 3 -1 6 15 6 22 1 27 -3 27 -21z m-1269 -15 c-8 -15
-10 -15 -11 -2 0 17 10 32 18 25 2 -3 -1 -13 -7 -23z m2538 11 c6 4 11 2 11
-3 0 -6 -9 -11 -20 -11 -12 0 -20 7 -20 18 0 13 2 14 9 3 5 -7 14 -10 20 -7z
m-2589 -43 c-6 -12 -15 -21 -21 -21 -5 0 -2 15 7 33 10 17 19 27 21 20 2 -7
-1 -21 -7 -32z m1310 19 c12 -8 9 -10 -12 -10 -16 0 -28 5 -28 10 0 13 20 13
40 0z m-1530 -10 c0 -5 -15 -9 -32 -9 l-33 1 30 8 c17 4 31 8 33 9 1 0 2 -3 2
-9z m337 -22 c-3 -7 -5 -2 -5 12 0 14 2 19 5 13 2 -7 2 -19 0 -25z m183 12 c0
-5 -5 -10 -11 -10 -5 0 -7 5 -4 10 3 6 8 10 11 10 2 0 4 -4 4 -10z m1020 -14
c0 -9 -7 -12 -20 -9 -11 3 -17 9 -14 14 8 14 34 10 34 -5z m-189 -39 c-8 -8
-11 -7 -11 4 0 20 13 34 18 19 3 -7 -1 -17 -7 -23z m201 -43 c4 -27 6 -49 5
-50 -1 -1 -18 -5 -37 -8 -19 -4 -30 -4 -25 1 6 4 10 15 10 23 0 8 5 15 12 15
6 0 15 3 19 8 4 4 -2 7 -14 7 -12 0 -22 5 -22 10 0 6 8 10 18 10 15 1 14 2 -3
12 -28 15 -28 15 -21 27 4 6 15 7 29 2 17 -6 24 -19 29 -57z m-1232 44 c0 -19
-18 -43 -25 -36 -9 9 4 48 16 48 5 0 9 -6 9 -12z m-610 -52 c0 -6 -7 -2 -15 8
-8 11 -15 25 -15 30 0 6 7 2 15 -8 8 -11 15 -25 15 -30z m530 0 c0 -3 -4 -8
-10 -11 -5 -3 -10 -1 -10 4 0 6 5 11 10 11 6 0 10 -2 10 -4z m-489 -48 l23
-33 -27 24 c-15 14 -27 28 -27 33 0 15 8 8 31 -24z m-41 -3 c13 -14 21 -25 18
-25 -2 0 -15 11 -28 25 -13 14 -21 25 -18 25 2 0 15 -11 28 -25z m700 -6 c-7
-11 -14 -18 -17 -15 -3 3 0 12 7 21 18 21 23 19 10 -6z m985 11 c-3 -5 -11
-10 -16 -10 -6 0 -7 5 -4 10 3 6 11 10 16 10 6 0 7 -4 4 -10z m-1258 -6 c-3
-3 -12 -4 -19 -1 -8 3 -5 6 6 6 11 1 17 -2 13 -5z m-132 -14 c13 -6 15 -9 5
-9 -8 0 -22 4 -30 9 -18 12 -2 12 25 0z m1405 -4 c0 -2 -7 -7 -16 -10 -8 -3
-12 -2 -9 4 6 10 25 14 25 6z m123 -3 c-7 -2 -21 -2 -30 0 -10 3 -4 5 12 5 17
0 24 -2 18 -5z m-1567 -40 c-6 -6 -56 20 -56 29 0 5 13 1 30 -8 16 -10 28 -19
26 -21z m1534 23 c0 -3 -4 -8 -10 -11 -5 -3 -10 -1 -10 4 0 6 5 11 10 11 6 0
10 -2 10 -4z m60 -31 c0 -9 -6 -12 -15 -9 -8 4 -15 1 -15 -5 0 -6 -13 -11 -30
-11 -16 0 -30 -5 -30 -11 0 -5 -5 -7 -11 -3 -8 5 -8 9 1 14 6 4 11 11 10 16
-2 11 28 22 63 23 17 1 27 -4 27 -14z m-1594 -45 c3 0 0 7 -7 17 -13 15 -12
15 11 3 14 -7 45 -19 70 -26 l45 -12 -65 5 c-65 5 -123 24 -136 44 -3 6 12 1
35 -10 22 -12 43 -21 47 -21z m219 0 c-3 -5 -14 -10 -23 -9 -14 0 -13 2 3 9
27 11 27 11 20 0z m-254 -38 c-7 -2 -18 1 -23 6 -8 8 -4 9 13 5 13 -4 18 -8
10 -11z m2694 -722 c3 -5 1 -10 -4 -10 -6 0 -11 5 -11 10 0 6 2 10 4 10 3 0 8
-4 11 -10z m12 -160 c0 -25 -1 -28 -4 -10 -7 38 -23 49 -23 16 0 -18 -4 -26
-12 -23 -17 5 -16 13 8 64 19 42 19 42 25 15 4 -15 7 -43 6 -62z m10 -62 c-3
-8 -6 -5 -6 6 -1 11 2 17 5 13 3 -3 4 -12 1 -19z m-667 -66 c-7 -3 -19 3 -28
13 -16 15 -15 16 12 4 15 -7 23 -15 16 -17z m111 -61 c-11 -7 -4 -11 25 -14
27 -2 19 -4 -26 -5 -36 -1 -72 3 -80 8 -11 7 -3 8 25 5 29 -4 36 -3 25 4 -12
9 -9 11 15 11 22 0 26 -3 16 -9z m509 -38 c0 -5 -13 -17 -28 -27 l-27 -19 24
26 c26 28 31 32 31 20z m1990 -167 c0 -3 -4 -8 -10 -11 -5 -3 -10 -1 -10 4 0
6 5 11 10 11 6 0 10 -2 10 -4z m-3110 -16 c-20 -13 -33 -13 -25 0 3 6 14 10
23 10 15 0 15 -2 2 -10z m27 -18 c7 -4 -6 -8 -30 -9 -31 -1 -37 1 -22 7 26 11
37 11 52 2z m55 -39 c-6 -2 -10 -9 -6 -14 3 -5 -1 -16 -9 -24 -13 -12 -17 -12
-33 0 -18 14 -18 14 0 15 20 0 20 0 0 15 -18 13 -16 14 21 14 22 0 34 -3 27
-6z m490 -115 c-7 -7 -12 -8 -12 -2 0 14 12 26 19 19 2 -3 -1 -11 -7 -17z m88
19 c0 -2 -16 -19 -37 -38 l-36 -34 28 38 c23 30 45 48 45 34z m191 -64 c-12
-20 -14 -14 -5 12 4 9 9 14 11 11 3 -2 0 -13 -6 -23z m-317 -8 c-9 -14 -19
-24 -21 -21 -6 6 20 46 30 46 4 0 0 -11 -9 -25z m130 -9 c-9 -15 -19 -25 -21
-22 -3 2 3 16 13 30 9 15 19 25 21 22 3 -2 -3 -16 -13 -30z m-234 4 c0 -5 -2
-10 -4 -10 -3 0 -8 5 -11 10 -3 6 -1 10 4 10 6 0 11 -4 11 -10z m286 -38 c-18
-35 -36 -50 -36 -29 0 16 40 70 47 63 2 -2 -3 -18 -11 -34z m114 18 c0 -4 -6
-10 -14 -13 -10 -4 -12 0 -9 14 5 18 23 18 23 -1z m140 11 c0 -6 -4 -13 -10
-16 -5 -3 -10 1 -10 9 0 9 5 16 10 16 6 0 10 -4 10 -9z m-384 -52 c-8 -21 -15
-27 -15 -16 -1 17 20 59 27 53 1 -2 -4 -19 -12 -37z m339 -4 c-10 -19 -19 -34
-22 -32 -2 3 4 21 13 41 10 19 19 34 22 32 2 -3 -4 -21 -13 -41z m85 36 c0 -6
-4 -13 -10 -16 -5 -3 -10 1 -10 9 0 9 5 16 10 16 6 0 10 -4 10 -9z m-267 -26
c-3 -9 -8 -14 -10 -11 -3 3 -2 9 2 15 9 16 15 13 8 -4z m2067 -39 c-7 -7 -10
1 -9 25 0 32 1 33 10 10 6 -16 6 -28 -1 -35z m56 -5 c-3 -12 -6 -9 -12 9 l-8
25 -7 -25 c-7 -23 -7 -23 -8 7 -1 17 5 33 12 36 14 5 30 -30 23 -52z m-206 30
c0 -26 -19 -75 -26 -68 -9 9 6 87 17 87 5 0 9 -9 9 -19z m102 -16 c3 -24 0
-35 -9 -35 -13 0 -19 51 -6 63 10 11 11 9 15 -28z m28 -1 c0 -21 -4 -33 -10
-29 -5 3 -10 19 -10 36 0 16 5 29 10 29 6 0 10 -16 10 -36z m-2248 4 c-7 -7
-12 -8 -12 -2 0 6 3 14 7 17 3 4 9 5 12 2 2 -3 -1 -11 -7 -17z m288 -15 c-11
-17 -11 -17 -6 0 3 10 6 24 7 30 0 9 2 9 5 0 3 -7 0 -20 -6 -30z m1664 31 c9
-3 16 -17 16 -30 0 -30 -20 -32 -21 -1 0 22 0 22 -10 -2 -12 -30 -23 -20 -15
14 7 27 7 28 30 19z m87 -4 c10 -6 19 -16 19 -23 0 -7 -4 -6 -10 3 -8 12 -10
12 -10 -5 0 -17 -2 -17 -10 -5 -6 10 -10 11 -10 3 0 -20 -17 -15 -23 7 -3 11
-1 18 4 14 5 -3 9 0 9 5 0 14 6 14 31 1z m115 -43 c1 -41 0 -46 -6 -22 -10 41
-11 75 -2 75 4 0 8 -24 8 -53z m34 23 c0 -16 -4 -30 -10 -30 -11 0 -14 43 -3
53 11 12 13 8 13 -23z m-2450 16 c0 -3 -4 -8 -10 -11 -5 -3 -10 -1 -10 4 0 6
5 11 10 11 6 0 10 -2 10 -4z m741 -27 c-9 -22 -10 -22 -10 -3 -1 11 2 24 6 27
12 12 14 0 4 -24z m-540 -22 c-8 -8 -11 -7 -11 4 0 20 13 34 18 19 3 -7 -1
-17 -7 -23z m69 3 c0 -5 -5 -10 -11 -10 -5 0 -7 5 -4 10 3 6 8 10 11 10 2 0 4
-4 4 -10z m2117 -22 c-3 -8 -6 -5 -6 6 -1 11 2 17 5 13 3 -3 4 -12 1 -19z
m-2032 -18 c-4 -12 -9 -19 -12 -17 -3 3 -2 15 2 27 4 12 9 19 12 17 3 -3 2
-15 -2 -27z m1885 10 c0 -5 -2 -10 -4 -10 -3 0 -8 5 -11 10 -3 6 -1 10 4 10 6
0 11 -4 11 -10z m-2153 -22 c-3 -8 -6 -5 -6 6 -1 11 2 17 5 13 3 -3 4 -12 1
-19z m398 -25 c-4 -17 -9 -23 -16 -16 -7 7 -6 19 3 38 14 31 23 17 13 -22z
m141 1 c-4 -20 -10 -34 -13 -30 -3 3 -2 21 1 42 4 20 10 34 13 30 3 -3 2 -21
-1 -42z m1871 4 c-3 -8 -6 -5 -6 6 -1 11 2 17 5 13 3 -3 4 -12 1 -19z m-1770
-25 c-3 -10 -5 -4 -5 12 0 17 2 24 5 18 2 -7 2 -21 0 -30z m-347 6 c0 -11 -4
-18 -10 -14 -5 3 -7 12 -3 20 7 21 13 19 13 -6z m2210 10 c0 -5 -11 -9 -25 -9
-14 0 -25 4 -25 9 0 5 11 9 25 9 14 0 25 -4 25 -9z m-282 -30 c-3 -8 -7 -3
-11 10 -4 17 -3 21 5 13 5 -5 8 -16 6 -23z m152 2 c0 -18 -27 -37 -38 -26 -3
3 0 5 6 5 7 0 12 9 12 20 0 11 5 20 10 20 6 0 10 -9 10 -19z m-2360 -1 c0 -5
-2 -10 -4 -10 -3 0 -8 5 -11 10 -3 6 -1 10 4 10 6 0 11 -4 11 -10z m546 -70
c-4 -80 -16 -90 -16 -13 0 51 5 73 16 73 1 0 1 -27 0 -60z m1594 34 c0 -8 -4
-12 -10 -9 -5 3 -10 13 -10 21 0 8 5 12 10 9 6 -3 10 -13 10 -21z m-1923 -20
c0 -19 -2 -33 -4 -30 -9 9 -13 66 -5 66 4 0 8 -16 9 -36z m2068 26 c3 -5 1
-10 -4 -10 -6 0 -11 5 -11 10 0 6 2 10 4 10 3 0 8 -4 11 -10z m-1323 -42 c-7
-7 -12 -8 -12 -2 0 6 3 14 7 17 3 4 9 5 12 2 2 -3 -1 -11 -7 -17z m849 -2 c-9
-11 -9 -15 1 -19 7 -2 1 -4 -14 -3 -24 1 -25 2 -10 18 20 20 39 24 23 4z m279
10 c0 -3 -4 -8 -10 -11 -5 -3 -10 -1 -10 4 0 6 5 11 10 11 6 0 10 -2 10 -4z
m-1230 -16 c0 -5 -5 -10 -11 -10 -5 0 -7 5 -4 10 3 6 8 10 11 10 2 0 4 -4 4
-10z m760 -3 c0 -7 -10 -13 -21 -14 -21 -2 -21 -1 -3 12 24 18 24 18 24 2z
m-1340 -23 c0 -8 -4 -14 -10 -14 -5 0 -10 9 -10 21 0 11 5 17 10 14 6 -3 10
-13 10 -21z m1390 4 c0 -13 -32 -6 -37 9 -3 7 3 9 16 6 12 -3 21 -10 21 -15z
m37 -4 c-3 -3 -12 -4 -19 -1 -8 3 -5 6 6 6 11 1 17 -2 13 -5z m-533 -15 c-2
-4 -15 -6 -29 -6 -13 0 -22 3 -20 7 3 4 16 7 29 6 13 0 22 -4 20 -7z m27 -32
c-5 -5 -26 -11 -46 -13 -28 -2 -34 0 -26 10 6 7 26 12 46 12 22 0 31 -4 26 -9z
m-841 -30 c0 -5 -4 -5 -10 -2 -5 3 -10 14 -10 23 0 15 2 15 10 2 5 -8 10 -19
10 -23z m-520 13 c0 -5 -2 -10 -4 -10 -3 0 -8 5 -11 10 -3 6 -1 10 4 10 6 0
11 -4 11 -10z m613 -33 c-3 -5 -9 -3 -14 4 -4 7 -5 17 -2 22 3 5 9 3 14 -4 4
-7 5 -17 2 -22z m74 1 c-3 -8 -6 -5 -6 6 -1 11 2 17 5 13 3 -3 4 -12 1 -19z
m-94 -47 c-4 -15 -8 -19 -13 -10 -5 6 -3 18 3 24 16 17 17 14 10 -14z m34
-153 c-3 -7 -5 -2 -5 12 0 14 2 19 5 13 2 -7 2 -19 0 -25z m173 -60 c0 -19
-18 -44 -25 -36 -4 3 0 15 7 27 15 24 18 26 18 9z m-233 -95 c-3 -10 -5 -4 -5
12 0 17 2 24 5 18 2 -7 2 -21 0 -30z m207 -30 c-6 -25 -24 -56 -24 -41 0 10
22 68 26 68 2 0 1 -12 -2 -27z m42 -25 c-11 -15 -16 -18 -16 -7 0 16 21 42 28
34 2 -2 -3 -14 -12 -27z m-926 -8 c0 -5 -5 -10 -11 -10 -5 0 -7 5 -4 10 3 6 8
10 11 10 2 0 4 -4 4 -10z m220 -40 c0 -5 -4 -10 -10 -10 -5 0 -10 5 -10 10 0
6 5 10 10 10 6 0 10 -4 10 -10z m-460 -50 c0 -5 -5 -10 -11 -10 -5 0 -7 5 -4
10 3 6 8 10 11 10 2 0 4 -4 4 -10z m1084 -20 c-10 -16 -20 -27 -22 -25 -5 5
26 55 34 55 3 0 -3 -13 -12 -30z m-966 -2 c27 -7 42 -16 43 -27 1 -13 2 -13 6
2 6 21 2 21 63 -3 28 -11 60 -20 70 -20 23 0 24 -4 8 -30 -10 -16 -10 -24 0
-40 7 -12 8 -20 2 -20 -5 0 -10 5 -10 10 0 6 -4 10 -10 10 -5 0 -10 -7 -10
-15 0 -8 5 -15 11 -15 7 0 1 -9 -13 -19 -25 -20 -25 -20 -94 1 -38 11 -71 25
-73 30 -2 6 -6 6 -10 -1 -6 -8 -16 -8 -42 0 -19 7 -35 13 -36 13 -1 1 7 28 18
60 10 33 17 61 15 63 -2 2 -14 -25 -26 -61 -14 -44 -25 -63 -35 -60 -16 7 -7
44 11 44 8 0 14 7 14 15 0 8 -8 15 -17 15 -15 0 -16 2 -3 10 9 6 17 5 22 -3 5
-8 8 -7 8 5 0 9 -4 19 -10 23 -5 3 -7 12 -4 20 6 15 16 15 102 -7z m672 -18
c-6 -11 -12 -20 -14 -20 -2 0 -2 9 1 20 3 11 9 20 15 20 5 0 4 -9 -2 -20z
m-806 -5 c-4 -8 -8 -15 -10 -15 -2 0 -4 7 -4 15 0 8 4 15 10 15 5 0 7 -7 4
-15z m656 11 c0 -3 -4 -8 -10 -11 -5 -3 -10 -1 -10 4 0 6 5 11 10 11 6 0 10
-2 10 -4z m297 -18 c-3 -8 -6 -5 -6 6 -1 11 2 17 5 13 3 -3 4 -12 1 -19z
m-617 2 c0 -5 -5 -10 -11 -10 -5 0 -7 5 -4 10 3 6 8 10 11 10 2 0 4 -4 4 -10z
m133 -30 c62 -18 77 -27 73 -39 -32 -97 -57 -166 -65 -174 -5 -5 -43 1 -90 13
-63 17 -81 26 -77 37 4 8 9 26 12 40 6 22 11 24 36 19 24 -5 29 -3 24 9 -3 8
-2 15 3 15 5 0 11 9 14 20 5 21 23 25 46 11 11 -7 11 -17 -3 -59 -15 -45 -20
-50 -42 -46 -13 2 -24 0 -24 -6 0 -5 4 -10 9 -10 5 0 16 -3 25 -6 10 -4 20 5
32 28 9 18 20 35 25 38 13 9 24 64 10 56 -6 -4 -11 -3 -11 2 0 13 -56 35 -69
27 -6 -3 -11 -13 -11 -21 0 -8 -9 -14 -20 -14 -11 0 -20 6 -20 14 0 27 23 77
34 73 6 -2 46 -15 89 -27z m427 -19 c0 -6 -4 -13 -10 -16 -5 -3 -10 1 -10 9 0
9 5 16 10 16 6 0 10 -4 10 -9z m-909 -28 c-8 -15 -10 -15 -11 -2 0 17 10 32
18 25 2 -3 -1 -13 -7 -23z m943 12 c-4 -8 -11 -15 -16 -15 -6 0 -5 6 2 15 7 8
14 15 16 15 2 0 1 -7 -2 -15z m58 -47 c-7 -7 -12 -8 -12 -2 0 6 3 14 7 17 3 4
9 5 12 2 2 -3 -1 -11 -7 -17z m-395 -16 c15 -10 63 -80 63 -93 0 -5 -11 -14
-25 -21 -13 -6 -22 -15 -19 -19 3 -5 -4 -9 -15 -9 -12 0 -21 5 -21 10 0 6 -16
10 -35 10 -19 0 -35 2 -35 5 0 3 7 32 17 65 13 49 20 60 37 60 12 0 26 -4 33
-8z m64 -24 c11 -11 19 -16 19 -9 0 7 4 10 9 7 5 -3 7 -15 4 -25 -5 -18 -6
-18 -25 -3 -22 19 -42 52 -32 52 4 0 15 -10 25 -22z m309 2 c0 -5 -7 -7 -15
-4 -8 4 -15 8 -15 10 0 2 7 4 15 4 8 0 15 -4 15 -10z m-440 -129 c0 -5 -9 -7
-20 -4 -11 3 -20 7 -20 9 0 2 9 4 20 4 11 0 20 -4 20 -9z m65 -21 c4 -7 -3 -8
-22 -4 -38 9 -42 14 -10 14 14 0 29 -5 32 -10z m-51 -21 c15 -7 7 -8 -28 -3
-27 3 -58 10 -70 15 -15 7 -7 8 28 3 27 -3 58 -10 70 -15z m-209 1 c-3 -5 -10
-10 -16 -10 -5 0 -9 5 -9 10 0 6 7 10 16 10 8 0 12 -4 9 -10z m68 -7 c-7 -2
-19 -2 -25 0 -7 3 -2 5 12 5 14 0 19 -2 13 -5z m554 -55 c-3 -7 -5 -2 -5 12 0
14 2 19 5 13 2 -7 2 -19 0 -25z m-320 16 c-3 -3 -12 -4 -19 -1 -8 3 -5 6 6 6
11 1 17 -2 13 -5z m253 -24 c0 -5 -6 -10 -14 -10 -8 0 -18 5 -21 10 -3 6 3 10
14 10 12 0 21 -4 21 -10z m-113 -6 c-3 -3 -12 -4 -19 -1 -8 3 -5 6 6 6 11 1
17 -2 13 -5z m193 -29 c0 -8 -4 -16 -9 -19 -5 -3 -8 5 -8 19 0 14 3 22 8 19 5
-3 9 -11 9 -19z m-50 5 c0 -5 -4 -10 -9 -10 -6 0 -13 5 -16 10 -3 6 1 10 9 10
9 0 16 -4 16 -10z m-113 -14 c10 -10 -111 -7 -127 4 -10 7 6 9 53 6 37 -1 70
-6 74 -10z m-22 -36 c17 -7 24 -7 20 0 -3 6 -2 10 4 10 5 0 13 -5 16 -10 11
-19 -26 -23 -58 -7 -36 18 -23 23 18 7z m135 -6 c0 -12 -7 -14 -32 -9 -52 11
-57 25 -10 25 32 0 42 -4 42 -16z m32 -99 c-5 -28 -4 -27 -25 -19 -20 7 -9 44
13 44 13 0 16 -6 12 -25z m-28 -32 c19 -9 37 -22 40 -30 3 -8 -13 -4 -44 12
-70 35 -66 52 4 18z m-39 -21 c25 -14 1 -16 -26 -1 -11 5 -17 15 -13 21 4 6 9
6 13 1 3 -5 15 -15 26 -21z m92 -38 c-3 -3 -12 -4 -19 -1 -8 3 -5 6 6 6 11 1
17 -2 13 -5z m-2 -83 c29 -22 29 -23 5 -16 -14 5 -35 9 -46 11 -12 1 -34 9
-50 17 l-28 15 45 -2 c30 -1 54 -9 74 -25z m65 -8 c-1 -27 -1 -27 -15 -9 -14
19 -12 36 6 36 5 0 9 -12 9 -27z m-250 -114 c0 -5 -4 -9 -10 -9 -5 0 -10 7
-10 16 0 8 5 12 10 9 6 -3 10 -10 10 -16z m114 4 c8 -8 40 -13 83 -13 12 0 25
-6 29 -12 5 -8 1 -9 -11 -4 -18 7 -18 6 0 -14 19 -20 19 -21 -1 -14 -10 4 -25
12 -33 18 -11 8 -13 8 -8 0 4 -8 -5 -10 -28 -8 -42 3 -51 8 -58 34 -5 20 12
28 27 13z m151 -71 c-6 -6 -25 45 -24 66 0 9 7 -1 15 -22 8 -22 12 -41 9 -44z
m-15 -71 c-1 -13 -4 -12 -15 3 -8 11 -15 27 -15 35 1 13 4 12 15 -3 8 -11 15
-27 15 -35z m-1243 -13 c-3 -7 -5 -2 -5 12 0 14 2 19 5 13 2 -7 2 -19 0 -25z
m1259 -69 c-2 -16 0 -29 5 -29 4 0 7 -9 6 -20 -2 -25 -20 -9 -22 19 -1 11 -7
27 -14 35 -12 14 -11 16 3 10 12 -4 15 -2 10 9 -3 8 -15 17 -26 20 -12 3 -17
10 -13 17 13 21 55 -29 51 -61z m114 11 c0 -5 -2 -10 -4 -10 -3 0 -8 5 -11 10
-3 6 -1 10 4 10 6 0 11 -4 11 -10z m-76 -16 c3 -8 2 -12 -4 -9 -6 3 -10 10
-10 16 0 14 7 11 14 -7z m36 -4 c0 -5 -2 -10 -4 -10 -3 0 -8 5 -11 10 -3 6 -1
10 4 10 6 0 11 -4 11 -10z m-4 -60 c8 0 14 -8 13 -17 0 -11 -3 -13 -6 -5 -2 6
-11 12 -19 12 -8 0 -14 8 -13 18 0 10 3 12 6 5 2 -7 11 -13 19 -13z m-46 -25
c0 -8 -2 -15 -4 -15 -2 0 -6 7 -10 15 -3 8 -1 15 4 15 6 0 10 -7 10 -15z m50
-24 c0 -5 3 -18 7 -28 6 -16 5 -16 -10 -4 -19 15 -23 41 -7 41 6 0 10 -4 10
-9z m20 -88 c0 -22 -2 -25 -10 -13 -13 20 -13 40 0 40 6 0 10 -12 10 -27z
m-833 -35 c-3 -7 -5 -2 -5 12 0 14 2 19 5 13 2 -7 2 -19 0 -25z m857 -43 c3
-8 1 -15 -4 -15 -6 0 -10 7 -10 15 0 8 2 15 4 15 2 0 6 -7 10 -15z m-19 -115
c5 -17 4 -22 -3 -15 -5 6 -13 21 -17 35 -5 17 -4 22 3 15 5 -5 13 -21 17 -35z
m-894 -21 c-9 -23 -10 -23 -10 -2 -1 12 2 30 6 40 6 15 8 15 11 2 1 -8 -2 -26
-7 -40z m-24 -41 c-3 -8 -6 -5 -6 6 -1 11 2 17 5 13 3 -3 4 -12 1 -19z m1001
-218 l0 -35 -9 40 c-4 22 -8 58 -7 80 l1 40 8 -45 c4 -25 7 -61 7 -80z m-981
78 c-3 -8 -6 -5 -6 6 -1 11 2 17 5 13 3 -3 4 -12 1 -19z m847 -54 c3 -8 2 -12
-4 -9 -6 3 -10 10 -10 16 0 14 7 11 14 -7z m-852 -34 c-2 -16 -6 -30 -8 -30
-2 0 -4 14 -4 30 0 17 4 30 8 30 5 0 7 -13 4 -30z m-85 -42 c-2 -13 -4 -3 -4
22 0 25 2 35 4 23 2 -13 2 -33 0 -45z m1106 -88 c3 -11 1 -20 -4 -20 -5 0 -9
9 -9 20 0 11 2 20 4 20 2 0 6 -9 9 -20z m-1022 -63 c-8 -8 -11 -7 -11 4 0 20
13 34 18 19 3 -7 -1 -17 -7 -23z m-103 -217 c0 -47 -2 -58 -8 -40 -4 14 -8 68
-8 120 1 86 2 90 8 40 5 -30 8 -84 8 -120z m952 135 c0 -5 -5 -3 -10 5 -5 8
-10 20 -10 25 0 6 5 3 10 -5 5 -8 10 -19 10 -25z m-1013 -27 c-2 -13 -4 -5 -4
17 -1 22 1 32 4 23 2 -10 2 -28 0 -40z m103 -90 c0 -181 -13 -234 -20 -84 -6
131 -1 226 11 226 5 0 9 -63 9 -142z m1124 56 c3 -8 2 -12 -4 -9 -6 3 -10 10
-10 16 0 14 7 11 14 -7z m-1071 -111 c3 -35 1 -63 -4 -63 -5 0 -9 21 -10 48 0
26 -2 61 -4 77 -3 19 -1 25 4 15 5 -8 11 -43 14 -77z m1096 -33 c0 -9 -6 -4
-14 10 -8 14 -14 32 -14 40 0 9 6 4 14 -10 8 -14 14 -32 14 -40z m151 -43 c0
-16 -21 5 -36 36 l-16 32 26 -30 c14 -16 25 -34 26 -38z m-2 -92 c-3 -3 -9 2
-12 12 -6 14 -5 15 5 6 7 -7 10 -15 7 -18z m46 -17 c-3 -4 -1 -8 4 -8 13 0 24
-44 16 -64 -5 -14 -10 -12 -30 9 -13 14 -24 29 -24 33 0 4 7 -2 15 -12 8 -11
15 -16 15 -10 0 5 5 2 10 -6 8 -13 10 -13 10 1 0 9 -9 27 -19 41 -15 19 -16
25 -6 25 8 0 12 -4 9 -9z m-44 -29 c0 -6 -4 -7 -10 -4 -5 3 -10 11 -10 16 0 6
5 7 10 4 6 -3 10 -11 10 -16z m-1303 -91 c-3 -7 -5 -2 -5 12 0 14 2 19 5 13 2
-7 2 -19 0 -25z m1333 22 c0 -5 -2 -10 -4 -10 -3 0 -8 5 -11 10 -3 6 -1 10 4
10 6 0 11 -4 11 -10z m-2 -45 c-3 -3 -9 2 -12 12 -6 14 -5 15 5 6 7 -7 10 -15
7 -18z m22 -50 c0 -5 -5 -3 -10 5 -5 8 -10 20 -10 25 0 6 5 3 10 -5 5 -8 10
-19 10 -25z m-1400 1 c0 -3 -4 -8 -10 -11 -5 -3 -10 -1 -10 4 0 6 5 11 10 11
6 0 10 -2 10 -4z m-3 -68 c-3 -8 -6 -5 -6 6 -1 11 2 17 5 13 3 -3 4 -12 1 -19z
m103 -78 c0 -5 -7 -10 -16 -10 -8 0 -12 5 -9 10 3 6 10 10 16 10 5 0 9 -4 9
-10z m37 4 c-3 -3 -12 -4 -19 -1 -8 3 -5 6 6 6 11 1 17 -2 13 -5z m-107 -24
c0 -5 -7 -10 -16 -10 -8 0 -12 5 -9 10 3 6 10 10 16 10 5 0 9 -4 9 -10z m-136
-75 c3 -8 1 -15 -3 -15 -5 0 -11 7 -15 15 -3 8 -1 15 3 15 5 0 11 -7 15 -15z
m26 3 c0 -9 4 -8 10 2 9 13 11 13 20 0 20 -30 14 -35 -24 -20 -25 9 -36 30
-16 30 6 0 10 -6 10 -12z m70 -8 c0 -11 -4 -20 -10 -20 -5 0 -10 9 -10 20 0
11 5 20 10 20 6 0 10 -9 10 -20z m1305 -40 c3 -5 1 -10 -4 -10 -6 0 -11 5 -11
10 0 6 2 10 4 10 3 0 8 -4 11 -10z m-18 -36 c-3 -3 -12 -4 -19 -1 -8 3 -5 6 6
6 11 1 17 -2 13 -5z m73 -4 c8 -5 12 -12 9 -15 -8 -8 -39 5 -39 16 0 11 11 11
30 -1z m-50 -20 c13 -8 13 -10 -2 -10 -9 0 -20 5 -23 10 -8 13 5 13 25 0z
m-1390 -10 c0 -5 -7 -10 -15 -10 -8 0 -15 5 -15 10 0 6 7 10 15 10 8 0 15 -4
15 -10z m1510 -19 c0 -6 -5 -13 -11 -16 -6 -4 -8 -13 -5 -21 7 -18 -59 -19
-101 -3 l-28 12 25 7 c14 4 29 3 35 -2 13 -11 52 -10 60 2 4 6 -8 10 -27 11
-31 1 -32 1 -8 9 35 11 60 12 60 1z m202 -700 c17 -6 26 -16 23 -24 -3 -7 8
-26 25 -42 16 -16 30 -33 30 -39 0 -6 -36 25 -80 69 -44 44 -80 84 -80 89 0 5
12 -2 28 -16 15 -15 39 -31 54 -37z"/>
<path d="M4755 7801 c3 -6 14 -9 25 -8 24 2 15 17 -11 17 -11 0 -18 -4 -14 -9z"/>
<path d="M4760 7762 c0 -5 7 -9 15 -9 8 0 12 4 9 9 -3 4 -9 8 -15 8 -5 0 -9
-4 -9 -8z"/>
<path d="M4907 7729 c17 -18 36 -28 42 -24 16 9 -7 38 -25 31 -7 -3 -15 2 -18
10 -3 8 -11 14 -18 14 -7 0 1 -14 19 -31z"/>
<path d="M4870 7736 c0 -4 11 -19 25 -34 14 -15 25 -22 25 -16 0 6 -11 21 -25
34 -14 13 -25 20 -25 16z"/>
<path d="M4736 7694 c-5 -14 -4 -15 9 -4 17 14 19 20 6 20 -5 0 -12 -7 -15
-16z"/>
<path d="M4760 7680 c0 -5 5 -10 11 -10 5 0 7 5 4 10 -3 6 -8 10 -11 10 -2 0
-4 -4 -4 -10z"/>
<path d="M4851 7681 c-7 -5 -11 -13 -8 -18 4 -6 -4 -9 -17 -8 -24 3 -24 3 -7
-26 l16 -28 24 24 c21 20 22 26 11 39 -7 10 -8 16 -2 16 6 0 12 -6 15 -12 2
-7 8 -9 13 -5 5 4 2 12 -6 17 -18 12 -22 12 -39 1z"/>
<path d="M4706 7645 c-3 -8 -12 -12 -21 -9 -10 4 -15 0 -15 -11 0 -9 4 -14 9
-11 5 4 11 0 14 -6 3 -8 9 -1 15 14 8 20 16 26 29 22 15 -5 16 -4 3 5 -20 14
-27 14 -34 -4z"/>
<path d="M4716 7614 c-10 -26 -7 -29 10 -8 14 18 15 18 8 -6 -7 -25 -7 -25 15
-6 11 11 21 14 21 8 0 -6 -5 -14 -10 -17 -8 -5 -7 -12 2 -23 11 -13 10 -15 -4
-9 -10 3 -18 2 -18 -2 0 -22 30 -17 55 9 l27 28 -28 15 c-52 26 -71 29 -78 11z"/>
<path d="M2125 7490 c3 -5 11 -10 16 -10 6 0 7 5 4 10 -3 6 -11 10 -16 10 -6
0 -7 -4 -4 -10z"/>
<path d="M2230 7425 c0 -15 18 -40 24 -34 3 3 -1 14 -9 25 -8 10 -14 15 -15 9z"/>
<path d="M2152 7408 c5 -15 28 -23 28 -10 0 5 -7 13 -16 16 -10 4 -14 1 -12
-6z"/>
<path d="M2055 7350 c10 -11 20 -18 23 -15 7 6 -18 35 -31 35 -5 0 -2 -9 8
-20z"/>
<path d="M2178 7364 c-5 -4 -8 -16 -8 -28 0 -14 3 -17 11 -9 6 6 9 19 7 28 -1
9 -6 13 -10 9z"/>
<path d="M2090 7316 c0 -2 8 -10 18 -17 15 -13 16 -12 3 4 -13 16 -21 21 -21
13z"/>
<path d="M2009 7269 c13 -11 27 -17 30 -13 7 7 -28 34 -43 34 -6 -1 0 -10 13
-21z"/>
<path d="M2124 7265 c-3 -7 -1 -22 5 -32 9 -16 10 -16 11 5 0 13 4 20 10 17 6
-3 10 -2 10 3 0 17 -30 23 -36 7z"/>
<path d="M3638 7313 c7 -3 16 -2 19 1 4 3 -2 6 -13 5 -11 0 -14 -3 -6 -6z"/>
<path d="M3425 7179 c-4 -6 -5 -12 -2 -15 2 -3 7 2 10 11 7 17 1 20 -8 4z"/>
<path d="M2813 7203 c9 -2 25 -2 35 0 9 3 1 5 -18 5 -19 0 -27 -2 -17 -5z"/>
<path d="M2743 7193 c9 -2 25 -2 35 0 9 3 1 5 -18 5 -19 0 -27 -2 -17 -5z"/>
<path d="M2888 7193 c6 -2 18 -2 25 0 6 3 1 5 -13 5 -14 0 -19 -2 -12 -5z"/>
<path d="M3290 4108 c0 -11 8 -18 20 -18 11 0 20 5 20 11 0 5 -5 7 -11 3 -6
-3 -15 0 -20 7 -7 11 -9 10 -9 -3z"/>
<path d="M3385 4060 c-8 -13 15 -24 27 -12 6 6 4 11 -6 15 -8 3 -18 2 -21 -3z"/>
<path d="M3477 4047 c-4 -10 -7 -26 -7 -35 1 -15 2 -15 11 1 6 10 9 25 7 35
-3 16 -4 15 -11 -1z"/>
<path d="M3566 3965 c-3 -8 -1 -15 4 -15 6 0 10 7 10 15 0 8 -2 15 -4 15 -2 0
-6 -7 -10 -15z"/>
<path d="M4110 3240 c25 -14 38 -16 42 -6 1 5 -10 10 -27 12 -21 2 -25 0 -15
-6z"/>
<path d="M3459 6586 c-8 -9 10 -129 21 -140 13 -13 12 1 -3 82 -7 35 -15 61
-18 58z"/>
<path d="M3478 6288 c-4 -105 -3 -116 9 -105 11 12 17 207 5 207 -6 0 -12 -41
-14 -102z"/>
<path d="M3206 6243 c-6 -14 -5 -15 5 -6 7 7 10 15 7 18 -3 3 -9 -2 -12 -12z"/>
<path d="M3490 6094 c0 -14 25 -70 51 -114 27 -44 40 -88 58 -195 11 -65 23
-120 26 -123 10 -10 5 43 -14 153 -15 88 -27 126 -60 187 -22 43 -41 84 -41
93 0 8 -4 15 -10 15 -5 0 -10 -7 -10 -16z"/>
<path d="M3259 6071 c-11 -18 -13 -34 -8 -42 5 -8 9 -12 10 -9 0 3 2 14 4 25
1 11 6 28 10 38 11 27 2 20 -16 -12z"/>
<path d="M4070 6070 c-8 -5 -12 -10 -9 -10 4 0 3 -19 -1 -42 -9 -48 -4 -68 17
-68 8 0 12 4 9 9 -12 18 43 18 60 0 30 -34 37 -20 7 14 -16 19 -34 32 -42 29
-9 -4 -12 -1 -7 6 11 18 21 15 55 -14 17 -14 31 -21 31 -16 0 5 -7 15 -15 22
-8 7 -15 16 -15 21 0 17 18 9 49 -23 20 -21 31 -27 31 -17 0 25 -43 58 -101
79 -29 11 -54 20 -54 20 0 0 -7 -5 -15 -10z"/>
<path d="M3229 5993 c-13 -16 -12 -17 4 -4 9 7 17 15 17 17 0 8 -8 3 -21 -13z"/>
<path d="M3244 5968 l-19 -23 23 19 c21 18 27 26 19 26 -2 0 -12 -10 -23 -22z"/>
<path d="M3255 5950 c-34 -36 -46 -73 -14 -44 10 9 17 20 14 22 -3 3 5 16 17
29 12 13 19 23 17 23 -3 0 -18 -14 -34 -30z"/>
<path d="M3280 5920 c-1 -3 -3 -14 -5 -24 -2 -10 -10 -23 -17 -27 -8 -5 -9 -9
-2 -9 18 0 36 27 31 47 -3 10 -6 16 -7 13z"/>
<path d="M3822 5898 c-17 -17 -15 -28 6 -28 9 0 39 -18 66 -40 60 -50 94 -60
113 -35 7 11 13 25 13 32 0 20 -18 15 -25 -7 -3 -11 -11 -20 -16 -20 -6 0 -7
5 -4 10 3 6 2 10 -3 10 -5 0 -15 12 -22 28 -25 49 -41 62 -80 62 -20 0 -41 -5
-48 -12z"/>
<path d="M3234 5878 l-19 -23 23 19 c21 18 27 26 19 26 -2 0 -12 -10 -23 -22z"/>
<path d="M3792 5844 c-5 -9 -7 -25 -5 -35 3 -11 -3 -22 -16 -28 -12 -7 -21
-21 -21 -33 0 -19 2 -19 21 6 19 24 26 27 61 21 32 -6 39 -4 36 6 -2 8 -19 18
-36 24 -39 11 -36 31 4 27 28 -4 30 7 2 12 -7 1 -18 5 -25 9 -7 4 -16 0 -21
-9z"/>
<path d="M3229 5768 c-8 -26 -5 -36 8 -31 11 4 12 8 3 13 -9 6 -9 9 1 13 10 4
10 6 2 6 -7 1 -13 0 -14 -1z"/>
<path d="M3257 5740 c-3 -11 -2 -20 3 -20 4 0 10 9 13 20 3 11 2 20 -3 20 -4
0 -10 -9 -13 -20z"/>
<path d="M4360 5605 c0 -8 4 -15 9 -15 5 0 14 7 21 15 10 13 9 15 -9 15 -12 0
-21 -6 -21 -15z"/>
<path d="M4318 5593 c-27 -7 -21 -23 7 -23 14 0 25 4 25 9 0 13 -12 18 -32 14z"/>
<path d="M4120 5530 c0 -5 19 -10 43 -10 31 0 38 3 27 10 -20 13 -70 13 -70 0z"/>
<path d="M3271 5476 c-7 -8 -8 -17 -3 -20 6 -3 15 1 21 8 7 8 8 17 3 20 -6 3
-15 -1 -21 -8z"/>
<path d="M3913 5453 c9 -2 25 -2 35 0 9 3 1 5 -18 5 -19 0 -27 -2 -17 -5z"/>
<path d="M3940 5435 c-19 -7 -39 -12 -43 -13 -5 0 -12 -4 -15 -8 -4 -4 -1 -4
6 0 7 4 12 2 12 -5 0 -8 4 -8 15 1 10 9 35 11 78 8 34 -3 55 -3 47 0 -8 2 -26
10 -40 17 -20 10 -32 10 -60 0z"/>
<path d="M4150 5435 c-14 -8 -19 -14 -10 -14 8 0 24 6 34 14 25 19 9 19 -24 0z"/>
<path d="M3518 5383 c7 -3 16 -2 19 1 4 3 -2 6 -13 5 -11 0 -14 -3 -6 -6z"/>
<path d="M6658 5334 c-38 -20 -36 -39 2 -19 33 17 60 20 60 6 0 -5 -19 -24
-42 -43 -24 -18 -49 -39 -57 -46 -12 -11 -15 -11 -22 0 -6 9 -9 7 -9 -9 0 -13
3 -23 8 -23 27 0 142 107 142 132 0 23 -43 24 -82 2z"/>
<path d="M6533 5281 c-54 -17 -77 -31 -52 -31 19 0 127 34 135 43 12 12 -28 6
-83 -12z"/>
<path d="M3311 5177 c-13 -21 -12 -21 5 -5 10 10 16 20 13 22 -3 3 -11 -5 -18
-17z"/>
<path d="M3339 5173 c-13 -16 -12 -17 4 -4 16 13 21 21 13 21 -2 0 -10 -8 -17
-17z"/>
<path d="M3330 5130 c-9 -6 -10 -10 -3 -10 6 0 15 5 18 10 8 12 4 12 -15 0z"/>
<path d="M3319 5073 l-24 -28 28 24 c25 23 32 31 24 31 -2 0 -14 -12 -28 -27z"/>
<path d="M3315 5041 c-3 -5 -1 -12 5 -16 5 -3 10 1 10 9 0 18 -6 21 -15 7z"/>
<path d="M5079 4923 c-13 -16 -12 -17 4 -4 16 13 21 21 13 21 -2 0 -10 -8 -17
-17z"/>
<path d="M5102 4920 c-12 -10 -32 -17 -44 -15 -12 3 -27 0 -35 -6 -17 -14 -17
2 0 21 6 7 1 5 -13 -5 -14 -10 -36 -32 -49 -49 l-25 -31 30 28 c42 38 54 34
18 -5 l-29 -33 35 33 c42 37 50 40 45 11 -4 -17 -2 -19 10 -9 18 15 20 24 3
14 -8 -4 -10 -3 -5 2 11 11 116 14 122 4 3 -5 -9 -7 -26 -5 -19 3 -29 0 -27
-7 8 -23 46 -13 89 24 24 21 35 36 25 32 -13 -5 -17 -4 -13 3 4 7 1 10 -8 9
-22 -3 -31 -16 -10 -16 21 0 12 -13 -10 -16 -8 -1 -15 3 -15 9 0 8 -4 7 -12
-1 -19 -19 -32 -14 -17 6 13 16 13 16 -7 0 -28 -24 -41 -23 -19 2 23 25 17 25
-13 0z"/>
<path d="M5259 4918 c-5 -18 -6 -38 -1 -34 7 8 12 36 6 36 -2 0 -4 -1 -5 -2z"/>
<path d="M5223 4883 c4 -3 -3 -18 -15 -32 l-23 -26 27 24 c24 21 29 41 11 41
-4 0 -3 -3 0 -7z"/>
<path d="M5080 4870 c-8 -5 -12 -12 -9 -15 4 -3 12 1 19 10 14 17 11 19 -10 5z"/>
<path d="M5180 4855 c-13 -14 -20 -25 -16 -25 5 0 2 -8 -5 -17 -13 -16 -12
-17 4 -4 9 8 15 16 12 19 -3 3 5 16 17 29 12 13 19 23 16 23 -2 0 -15 -11 -28
-25z"/>
<path d="M5650 4835 c-9 -11 -9 -15 -1 -15 7 0 9 -4 6 -10 -10 -17 8 -11 35
11 21 17 22 19 3 10 -29 -15 -36 -14 -29 4 3 8 4 15 2 15 -2 0 -9 -7 -16 -15z"/>
<path d="M5460 4829 c0 -5 5 -7 10 -4 6 3 10 8 10 11 0 2 -4 4 -10 4 -5 0 -10
-5 -10 -11z"/>
<path d="M5759 4823 c-13 -16 -12 -17 4 -4 16 13 21 21 13 21 -2 0 -10 -8 -17
-17z"/>
<path d="M4869 4813 c-13 -16 -12 -17 4 -4 9 7 17 15 17 17 0 8 -8 3 -21 -13z"/>
<path d="M4754 4799 c-3 -6 -2 -15 3 -20 5 -5 9 -1 10 11 2 22 -2 25 -13 9z"/>
<path d="M5035 4791 c-6 -6 -23 -17 -40 -25 -18 -10 -23 -16 -13 -16 9 0 20 5
23 10 4 6 15 8 25 5 10 -3 21 -1 25 4 4 7 -1 8 -12 4 -16 -6 -16 -5 -4 10 14
18 11 23 -4 8z"/>
<path d="M4805 4740 c-3 -6 1 -7 9 -4 18 7 21 14 7 14 -6 0 -13 -4 -16 -10z"/>
<path d="M4031 3914 c0 -11 3 -14 6 -6 3 7 2 16 -1 19 -3 4 -6 -2 -5 -13z"/>
<path d="M4021 3854 c0 -11 3 -14 6 -6 3 7 2 16 -1 19 -3 4 -6 -2 -5 -13z"/>
<path d="M4880 1253 c0 -13 5 -23 10 -23 13 0 13 11 0 30 -8 12 -10 11 -10 -7z"/>
<path d="M4900 1175 c1 -11 8 -31 16 -45 l15 -25 -6 35 c-6 39 -25 66 -25 35z"/>
<path d="M4818 1109 c-25 -14 -23 -33 1 -20 16 9 18 8 14 -9 -3 -12 0 -20 7
-20 8 0 11 -9 8 -25 -4 -19 -1 -25 13 -25 21 0 38 22 21 28 -15 5 -16 32 -2
32 6 0 10 5 10 11 0 6 -7 8 -16 5 -12 -4 -14 -1 -9 14 7 23 -17 27 -47 9z"/>
<path d="M4930 1095 c0 -5 5 -17 10 -25 5 -8 10 -10 10 -5 0 6 -5 17 -10 25
-5 8 -10 11 -10 5z"/>
<path d="M3255 993 c0 -13 3 -23 8 -23 4 0 7 -4 7 -10 0 -5 -6 -10 -14 -10 -8
0 -18 -9 -21 -20 -3 -11 -11 -20 -16 -20 -12 0 -12 4 6 47 17 40 19 53 7 53
-5 0 -14 -17 -20 -38 -6 -20 -23 -53 -37 -72 -32 -44 -32 -60 0 -30 24 23 28
23 76 11 27 -7 53 -10 56 -7 4 3 -4 6 -17 6 -19 0 -20 2 -10 15 7 8 24 15 39
16 23 1 22 2 -9 11 -30 8 -32 11 -16 20 17 9 17 11 -1 30 -18 20 -17 20 3 14
14 -4 21 -2 21 8 0 8 -13 16 -31 18 -27 3 -31 0 -31 -19z"/>
<path d="M4880 1002 c-23 -11 -22 -30 1 -37 25 -8 44 8 36 29 -7 17 -13 18
-37 8z"/>
<path d="M4788 993 c12 -2 32 -2 45 0 12 2 2 4 -23 4 -25 0 -35 -2 -22 -4z"/>
<path d="M4980 981 c0 -6 4 -13 10 -16 6 -3 7 1 4 9 -7 18 -14 21 -14 7z"/>
<path d="M3348 973 c7 -3 16 -2 19 1 4 3 -2 6 -13 5 -11 0 -14 -3 -6 -6z"/>
<path d="M4741 973 c19 -3 28 -11 32 -29 4 -21 1 -24 -17 -19 -11 3 -5 -3 14
-13 37 -19 62 -18 36 1 -8 7 -20 24 -25 40 -8 21 -16 27 -38 26 l-28 -2 26 -4z"/>
<path d="M2438 953 c7 -3 16 -2 19 1 4 3 -2 6 -13 5 -11 0 -14 -3 -6 -6z"/>
<path d="M4880 941 c-36 -5 -40 -7 -22 -13 15 -4 20 -11 16 -22 -7 -19 12 -21
50 -6 27 10 38 51 14 48 -7 0 -33 -4 -58 -7z"/>
<path d="M2505 930 c-16 -7 -17 -9 -3 -9 9 -1 20 4 23 9 7 11 7 11 -20 0z"/>
<path d="M2580 920 c-8 -5 -24 -7 -35 -4 -17 4 -18 4 -3 -6 16 -10 68 1 68 15
0 8 -13 6 -30 -5z"/>
<path d="M3476 914 c-4 -11 -3 -20 3 -22 19 -6 12 -41 -10 -52 -11 -7 -18 -14
-15 -17 3 -4 15 2 26 12 21 19 24 45 11 79 -7 19 -8 19 -15 0z"/>
<path d="M2625 910 c-3 -6 1 -7 9 -4 18 7 21 14 7 14 -6 0 -13 -4 -16 -10z"/>
<path d="M2458 903 c7 -3 16 -2 19 1 4 3 -2 6 -13 5 -11 0 -14 -3 -6 -6z"/>
<path d="M2668 903 c6 -2 18 -2 25 0 6 3 1 5 -13 5 -14 0 -19 -2 -12 -5z"/>
<path d="M2588 893 c7 -3 16 -2 19 1 4 3 -2 6 -13 5 -11 0 -14 -3 -6 -6z"/>
<path d="M2718 893 c7 -3 16 -2 19 1 4 3 -2 6 -13 5 -11 0 -14 -3 -6 -6z"/>
<path d="M3560 887 c0 -10 9 -36 21 -58 11 -23 19 -42 17 -43 -35 -20 -99 -41
-168 -56 -68 -15 -108 -32 -200 -84 -134 -78 -172 -91 -232 -82 -66 10 -73 17
-46 52 l23 29 -34 -25 c-19 -13 -31 -17 -26 -9 5 8 -1 5 -13 -5 -24 -21 -28
-16 -11 15 6 11 17 18 24 15 7 -2 19 2 26 10 10 12 9 13 -7 8 -10 -4 -4 5 15
20 19 14 39 26 43 26 4 0 7 5 6 11 -2 6 3 14 11 17 9 3 11 0 6 -8 -5 -8 3 -5
17 6 14 10 24 23 21 27 -3 4 6 5 19 3 12 -3 57 -2 98 3 41 4 63 9 49 10 -22 1
-26 5 -21 26 4 23 7 24 45 18 29 -4 38 -3 33 5 -4 7 -18 12 -31 12 -18 0 -23
4 -19 15 4 10 0 15 -14 15 -26 0 -43 -21 -37 -49 3 -18 0 -22 -18 -19 -16 2
-22 10 -22 28 0 17 -6 26 -20 28 -14 2 -16 1 -7 -6 10 -7 10 -11 -3 -22 -13
-11 -23 -11 -49 -2 -39 15 -66 15 -66 2 0 -5 -15 -13 -32 -18 -32 -8 -32 -9
-9 -16 14 -5 26 -4 30 2 7 12 61 28 61 18 0 -9 -101 -58 -108 -52 -3 3 0 6 6
6 7 0 12 5 12 10 0 6 -3 9 -7 9 -23 -4 -43 2 -38 11 3 6 -5 14 -19 20 -14 5
-26 16 -26 25 0 16 -35 19 -80 6 l-25 -7 28 -8 c16 -4 38 -4 49 -1 19 7 19 6
2 -14 -12 -14 -22 -17 -29 -11 -7 6 -16 6 -20 2 -5 -4 -5 -1 -1 6 10 17 -45
16 -81 -2 -15 -8 -37 -18 -48 -22 l-20 -6 20 -8 20 -7 -20 -5 c-16 -5 -14 -6
7 -7 16 -1 32 -9 38 -20 14 -27 13 -44 -2 -35 -9 5 -9 3 1 -9 7 -9 16 -15 20
-12 4 2 7 -6 7 -18 -1 -13 4 -21 12 -20 6 2 12 -3 12 -10 0 -14 35 -47 49 -47
5 0 14 -6 20 -14 7 -8 24 -14 39 -14 15 0 40 -5 55 -11 35 -14 70 -14 62 -1
-4 6 6 10 24 10 23 0 29 -4 25 -15 -4 -8 -2 -15 3 -15 30 0 132 39 224 86 59
30 116 54 127 54 12 0 23 4 26 9 3 5 30 15 58 22 111 26 148 51 148 96 -1 31
-49 129 -50 100z m-693 -93 c-3 -3 -12 -4 -19 -1 -8 3 -5 6 6 6 11 1 17 -2 13
-5z m10 -22 c-10 -10 -14 -22 -10 -26 5 -5 -7 -5 -24 -1 -21 4 -33 3 -33 -4 0
-6 -5 -11 -11 -11 -5 0 -7 5 -4 10 3 6 -1 10 -9 10 -9 0 -16 5 -16 10 0 6 7
10 15 10 8 0 15 -4 15 -8 0 -4 12 -7 28 -6 15 1 26 7 24 13 -1 7 2 10 7 7 5
-4 12 -2 16 4 3 5 9 10 12 10 3 0 -1 -8 -10 -18z m252 9 c9 -6 3 -10 -20 -14
-39 -5 -50 0 -29 13 19 12 31 12 49 1z m-374 -11 c7 -12 -32 -12 -60 0 -16 7
-13 9 17 9 20 1 40 -3 43 -9z m145 -29 c0 -5 -7 -14 -15 -21 -16 -14 -18 -10
-9 14 6 17 24 22 24 7z m656 0 c-7 -10 -97 -37 -149 -45 -20 -2 -35 -1 -32 3
2 5 28 12 57 16 29 3 67 12 83 20 36 16 48 18 41 6z m-794 -28 c-6 -2 -10 -9
-6 -14 3 -5 -2 -9 -10 -9 -9 0 -16 7 -16 15 0 9 9 15 23 14 12 0 16 -3 9 -6z
m587 -37 c-10 -9 -133 -68 -126 -60 20 21 94 63 111 63 11 1 17 -1 15 -3z
m-409 -116 c13 -9 13 -10 0 -10 -8 0 -22 5 -30 10 -13 9 -13 10 0 10 8 0 22
-5 30 -10z"/>
<path d="M2768 883 c7 -3 16 -2 19 1 4 3 -2 6 -13 5 -11 0 -14 -3 -6 -6z"/>
<path d="M4930 875 c-7 -8 -19 -15 -27 -15 -8 0 -12 -4 -8 -9 3 -5 -3 -12 -12
-14 -10 -3 2 -6 27 -7 25 -1 37 -4 28 -7 -10 -2 -18 -9 -18 -14 0 -13 -61 -4
-70 10 -5 10 -9 8 -13 -4 -4 -9 -3 -13 3 -10 17 11 11 -7 -7 -21 -17 -12 -16
-13 7 -22 21 -8 26 -6 30 10 3 10 8 19 13 19 4 -1 26 -1 50 -1 31 0 38 3 27
10 -11 8 -7 9 14 4 20 -5 27 -3 22 4 -3 6 -1 14 5 18 19 11 -12 23 -46 18 -30
-6 -30 -5 -6 8 13 7 23 18 23 23 -2 17 -28 17 -42 0z m-73 -101 c-3 -3 -12 -4
-19 -1 -8 3 -5 6 6 6 11 1 17 -2 13 -5z"/>
<path d="M2530 870 c-18 -12 -2 -12 25 0 13 6 15 9 5 9 -8 0 -22 -4 -30 -9z"/>
<path d="M2585 870 c-3 -5 1 -10 10 -10 9 0 13 5 10 10 -3 6 -8 10 -10 10 -2
0 -7 -4 -10 -10z"/>
<path d="M2668 873 c7 -3 16 -2 19 1 4 3 -2 6 -13 5 -11 0 -14 -3 -6 -6z"/>
<path d="M2845 870 c-7 -11 16 -11 60 0 28 7 28 8 -12 9 -23 0 -45 -3 -48 -9z"/>
<path d="M2985 870 c-14 -5 -5 -8 30 -8 35 0 44 3 30 8 -11 5 -24 9 -30 9 -5
0 -19 -4 -30 -9z"/>
<path d="M4789 866 c17 -20 49 -26 55 -10 3 8 0 14 -7 15 -7 0 -23 2 -36 5
-19 3 -22 2 -12 -10z"/>
<path d="M2708 863 c6 -2 18 -2 25 0 6 3 1 5 -13 5 -14 0 -19 -2 -12 -5z"/>
<path d="M5020 856 c0 -2 8 -10 18 -17 15 -13 16 -12 3 4 -13 16 -21 21 -21
13z"/>
<path d="M2728 843 c7 -3 16 -2 19 1 4 3 -2 6 -13 5 -11 0 -14 -3 -6 -6z"/>
<path d="M2640 829 c0 -5 5 -7 10 -4 6 3 10 8 10 11 0 2 -4 4 -10 4 -5 0 -10
-5 -10 -11z"/>
<path d="M2883 834 c14 -14 67 -21 81 -11 13 10 7 12 -35 14 -28 0 -48 -1 -46
-3z"/>
<path d="M2660 815 c-14 -8 -19 -14 -10 -14 8 0 26 6 40 14 14 8 19 14 10 14
-8 0 -26 -6 -40 -14z"/>
<path d="M2598 813 c7 -3 16 -2 19 1 4 3 -2 6 -13 5 -11 0 -14 -3 -6 -6z"/>
<path d="M4974 775 c-9 -23 3 -45 25 -45 14 0 18 -5 14 -20 -4 -14 0 -20 10
-20 9 0 15 8 15 18 0 9 3 25 7 35 5 13 2 17 -14 17 -12 0 -21 4 -21 9 0 16
-31 21 -36 6z"/>
<path d="M4880 760 c0 -5 5 -10 11 -10 5 0 7 5 4 10 -3 6 -8 10 -11 10 -2 0
-4 -4 -4 -10z"/>
<path d="M4918 713 c6 -2 18 -2 25 0 6 3 1 5 -13 5 -14 0 -19 -2 -12 -5z"/>
<path d="M5052 676 c-20 -11 -21 -14 -9 -24 12 -10 16 -9 21 3 3 8 12 15 21
15 8 0 15 5 15 10 0 14 -20 12 -48 -4z"/>
<path d="M5136 645 c4 -11 15 -29 24 -40 9 -11 22 -34 29 -51 7 -17 27 -46 45
-65 40 -42 66 -90 66 -124 0 -16 6 -25 15 -25 20 0 19 16 -4 65 -30 66 -192
288 -175 240z"/>
<path d="M4901 584 c0 -11 3 -14 6 -6 3 7 2 16 -1 19 -3 4 -6 -2 -5 -13z"/>
<path d="M2968 583 c6 -2 18 -2 25 0 6 3 1 5 -13 5 -14 0 -19 -2 -12 -5z"/>
<path d="M4981 534 c0 -11 3 -14 6 -6 3 7 2 16 -1 19 -3 4 -6 -2 -5 -13z"/>
<path d="M4700 470 c0 -5 7 -7 15 -4 8 4 15 8 15 10 0 2 -7 4 -15 4 -8 0 -15
-4 -15 -10z"/>
<path d="M4785 470 c-3 -5 1 -10 10 -10 9 0 13 5 10 10 -3 6 -8 10 -10 10 -2
0 -7 -4 -10 -10z"/>
<path d="M5041 464 c0 -11 3 -14 6 -6 3 7 2 16 -1 19 -3 4 -6 -2 -5 -13z"/>
<path d="M4540 460 c-12 -8 -11 -10 8 -10 12 0 22 5 22 10 0 13 -11 13 -30 0z"/>
<path d="M4835 460 c-3 -5 3 -10 14 -10 12 0 21 5 21 10 0 6 -6 10 -14 10 -8
0 -18 -4 -21 -10z"/>
<path d="M4488 433 c6 -2 18 -2 25 0 6 3 1 5 -13 5 -14 0 -19 -2 -12 -5z"/>
<path d="M4585 390 c-4 -6 8 -10 29 -10 19 0 38 5 41 10 4 6 -8 10 -29 10 -19
0 -38 -4 -41 -10z"/>
</g>
</svg>
