<?xml version="1.0" standalone="no"?>
<!DOCTYPE svg PUBLIC "-//W3C//DTD SVG 20010904//EN"
 "http://www.w3.org/TR/2001/REC-SVG-20010904/DTD/svg10.dtd">
<svg version="1.0" xmlns="http://www.w3.org/2000/svg"
 width="821.000000pt" height="821.000000pt" viewBox="0 0 821.000000 821.000000"
 preserveAspectRatio="xMidYMid meet">
<metadata>
Created by potrace 1.11, written by Peter Selinger 2001-2013
</metadata>
<g transform="translate(0.000000,821.000000) scale(0.100000,-0.100000)"
fill="#000000" stroke="none">
<path d="M4555 7893 c-11 -3 -38 -13 -60 -23 -22 -10 -57 -25 -77 -33 -104
-43 -217 -227 -230 -372 -3 -25 -8 -30 -33 -33 -16 -1 -82 -11 -145 -22 -63
-10 -173 -24 -245 -30 -71 -7 -149 -15 -173 -20 -38 -7 -47 -4 -82 21 -32 24
-50 29 -95 29 -47 0 -55 -3 -55 -19 0 -22 -25 -35 -59 -32 -22 3 -52 -8 -91
-30 -74 -43 -47 -38 -355 -70 -110 -11 -231 -24 -270 -29 -110 -14 -109 -15
-124 28 -24 71 -98 167 -169 219 -64 48 -111 77 -122 76 -3 0 -16 3 -29 8 -13
5 -45 10 -72 11 -27 0 -52 5 -55 9 -8 13 -90 11 -164 -5 -84 -18 -173 -60
-219 -105 -20 -19 -40 -34 -44 -33 -5 2 -6 -2 -3 -6 3 -5 -4 -18 -15 -28 -62
-56 -129 -223 -129 -319 0 -99 67 -294 106 -309 8 -3 14 -11 14 -18 0 -24 130
-131 185 -152 59 -23 164 -46 213 -46 100 0 251 44 312 92 147 116 229 252
230 381 0 20 4 37 8 37 5 0 60 9 123 21 63 11 129 18 148 15 18 -3 72 2 120
11 47 8 102 17 121 19 19 2 65 9 102 14 37 6 69 10 71 10 3 0 7 -10 10 -22 3
-13 10 -40 15 -60 7 -28 5 -60 -10 -130 -10 -51 -25 -136 -33 -188 -8 -52 -21
-123 -29 -156 -24 -106 -30 -247 -13 -301 24 -76 30 -135 33 -358 2 -115 8
-236 14 -268 6 -32 8 -62 5 -68 -4 -5 -1 -9 4 -9 6 0 11 -15 11 -32 0 -18 11
-78 24 -133 34 -143 37 -169 38 -312 0 -81 -6 -156 -16 -204 -9 -41 -16 -100
-15 -130 1 -73 1 -85 -6 -314 -6 -168 -10 -207 -26 -241 -10 -22 -19 -52 -19
-66 0 -14 -7 -44 -15 -67 -8 -22 -11 -41 -8 -41 3 0 -2 -9 -12 -20 -12 -13
-21 -45 -25 -93 -4 -39 -17 -110 -29 -156 -12 -46 -19 -92 -15 -103 3 -11 -4
-34 -16 -56 -12 -20 -34 -71 -47 -112 -23 -68 -26 -95 -30 -300 -3 -134 -1
-245 5 -275 6 -27 17 -84 25 -125 9 -41 20 -112 26 -158 6 -45 20 -104 32
-130 17 -37 21 -64 20 -129 -1 -54 4 -99 15 -133 15 -44 16 -71 9 -184 -5 -72
-9 -210 -9 -306 1 -162 3 -184 32 -301 18 -70 32 -141 32 -157 0 -17 5 -34 10
-37 6 -4 8 -15 5 -26 -4 -11 -2 -19 5 -19 6 0 11 -12 9 -27 -1 -16 1 -35 5
-43 11 -26 24 -154 16 -165 -3 -5 -13 -26 -20 -45 -8 -19 -22 -47 -33 -61 -17
-24 -23 -26 -55 -18 -48 11 -54 11 -47 0 3 -6 -25 -1 -62 9 -38 10 -90 21
-118 25 -27 4 -66 11 -86 16 -44 11 -87 18 -153 24 -26 3 -51 7 -55 9 -4 3
-13 1 -20 -3 -8 -6 5 -11 35 -16 74 -12 85 -13 144 -23 30 -6 58 -8 62 -6 4 2
9 0 13 -6 3 -5 18 -10 33 -11 15 0 36 -4 47 -9 27 -12 -49 -5 -145 13 -41 8
-82 14 -90 14 -27 -1 -120 25 -120 33 0 4 -11 5 -25 2 -18 -3 -25 0 -23 9 2 9
-4 13 -17 11 -64 -9 -92 -22 -74 -33 7 -4 21 -3 31 2 14 7 18 6 18 -6 0 -17
-55 -22 -65 -4 -4 5 -12 8 -18 6 -7 -2 -27 2 -46 9 -18 8 -43 14 -55 14 -19
-1 -19 -2 -3 -11 9 -5 22 -7 29 -3 8 5 9 2 5 -10 -4 -10 -7 -20 -7 -22 0 -2
-9 -4 -20 -4 -13 0 -18 5 -14 15 4 9 0 15 -10 15 -9 0 -16 -5 -16 -11 0 -6 -6
-9 -12 -6 -7 2 -13 10 -13 18 0 7 -8 15 -17 17 -10 2 -18 -1 -18 -7 0 -6 6
-11 13 -11 8 0 7 -3 -3 -10 -19 -12 -15 -14 49 -28 32 -7 57 -9 60 -3 10 15
88 24 108 12 14 -9 10 -10 -21 -5 -25 4 -37 3 -33 -3 4 -6 27 -14 52 -17 25
-4 45 -11 45 -16 0 -7 -72 8 -111 25 -10 3 -20 2 -23 -4 -6 -10 30 -23 102
-37 17 -4 29 -10 27 -15 -10 -15 16 -21 32 -7 14 11 16 11 8 -1 -6 -11 -1 -12
29 -7 22 4 36 3 36 -3 0 -6 17 -14 38 -17 37 -6 56 -34 23 -34 -24 0 0 -17 38
-27 20 -5 35 -16 37 -26 5 -36 45 -104 69 -117 14 -7 25 -17 25 -22 0 -4 6 -8
14 -8 7 0 19 -6 25 -14 7 -8 21 -12 31 -9 11 3 38 -2 60 -11 45 -18 95 -21 85
-6 -3 6 -1 10 4 10 6 0 11 -4 11 -10 0 -16 55 -11 112 10 29 11 93 40 141 65
48 25 96 45 105 45 10 0 26 6 37 13 11 8 45 19 75 26 78 17 134 50 138 82 2
15 -11 55 -28 90 -44 88 -57 154 -58 294 -2 144 -9 156 -71 131 -51 -20 -61
-20 -61 -1 0 9 14 16 38 20 78 12 86 22 93 110 3 44 12 133 19 197 12 104 12
127 -3 211 -10 51 -28 125 -40 163 -24 69 -24 70 -7 154 9 47 27 123 38 170
12 47 26 141 31 210 6 92 16 144 34 195 31 85 52 158 69 245 l13 65 41 -75
c23 -41 51 -106 64 -145 12 -38 37 -97 54 -130 18 -33 36 -73 40 -90 4 -16 29
-66 56 -110 26 -44 58 -101 71 -127 13 -27 26 -48 30 -48 16 0 49 -70 74 -159
29 -105 49 -149 107 -234 21 -31 46 -76 54 -99 8 -23 19 -47 24 -53 5 -7 8
-14 5 -17 -7 -7 32 -171 53 -222 19 -47 71 -122 160 -229 40 -49 62 -84 62
-101 0 -14 6 -29 13 -33 13 -9 37 -70 37 -96 0 -9 13 -38 29 -64 16 -27 33
-61 36 -78 4 -16 17 -39 29 -50 13 -11 31 -42 40 -68 17 -46 17 -50 1 -95 -13
-33 -15 -47 -7 -50 7 -2 9 -13 6 -29 -5 -18 -1 -31 14 -46 12 -12 37 -41 57
-64 l36 -41 -38 10 c-48 12 -54 12 -77 2 -14 -5 -17 -4 -12 4 5 8 0 12 -13 12
-12 0 -21 -5 -21 -10 0 -6 -11 -8 -25 -4 -15 4 -25 2 -25 -4 0 -6 8 -12 18
-15 15 -3 -4 -3 -100 2 -10 1 -18 6 -18 11 0 12 37 13 44 1 3 -5 15 -7 26 -4
26 7 15 23 -16 23 -15 0 -24 6 -24 16 0 17 -28 16 -74 -2 -14 -5 -17 -4 -12 4
5 8 0 12 -13 12 -18 0 -19 -3 -11 -26 9 -22 8 -25 -6 -20 -8 3 -25 6 -37 7
-20 1 -20 2 3 8 16 5 -3 7 -47 7 -103 -1 -92 -18 20 -32 23 -3 58 -9 77 -14
32 -9 30 -9 -18 -6 -38 2 -55 -1 -59 -10 -3 -8 -9 -11 -14 -8 -5 3 -7 9 -4 13
2 5 -16 11 -42 15 -63 8 -75 8 -68 -4 3 -5 1 -10 -4 -10 -6 0 -11 5 -11 10 0
6 -4 10 -10 10 -5 0 -10 -7 -10 -15 0 -18 46 -21 53 -2 3 6 6 1 6 -12 1 -20 3
-21 16 -11 12 10 15 10 15 -2 0 -11 21 -18 78 -26 194 -29 281 -44 337 -56 33
-8 89 -20 125 -26 36 -7 115 -23 176 -36 138 -30 147 -30 220 0 58 24 59 25
56 61 -2 20 -10 51 -17 68 -13 31 -112 174 -159 230 -13 15 -29 46 -36 67 -14
43 -36 56 -26 15 6 -24 -1 -31 -28 -26 -5 1 -13 -4 -18 -11 -6 -8 -7 4 -3 33
5 44 4 47 -20 53 -22 6 -24 11 -20 36 4 25 1 32 -17 39 -15 5 -18 10 -9 15 10
6 9 12 -2 24 -8 10 -17 30 -21 46 -5 20 -12 27 -24 23 -9 -2 -21 -6 -27 -7 -5
-1 -37 -1 -70 1 l-60 3 75 5 c62 5 75 9 78 24 2 12 -4 20 -16 24 -12 3 -18 11
-16 18 3 7 0 16 -6 20 -8 5 -8 10 0 20 13 15 4 39 -11 30 -5 -3 -6 1 -3 9 9
23 -22 31 -51 12 -30 -20 -56 -22 -30 -2 16 11 17 17 7 29 -10 12 -4 17 35 33
27 11 50 20 53 21 3 2 6 -10 7 -27 2 -32 104 -253 122 -264 19 -12 13 7 -33
99 -24 50 -47 106 -51 125 -4 19 -13 45 -21 57 -8 12 -14 36 -14 53 0 41 -25
39 -35 -2 -7 -33 -7 -33 -16 -9 -8 21 -6 28 19 48 29 22 30 23 16 63 -8 22
-19 72 -25 112 -33 220 -96 371 -201 483 -21 22 -38 47 -38 57 0 9 -4 19 -9
22 -4 3 -16 31 -25 63 -9 32 -25 72 -35 90 -16 26 -20 50 -20 130 0 134 -11
254 -26 278 -7 11 -16 69 -20 128 -6 106 -33 232 -61 292 -7 17 -25 71 -39
120 -14 50 -37 113 -50 140 -24 49 -47 125 -39 125 2 0 -16 40 -41 90 -38 75
-45 99 -45 147 0 32 -4 75 -9 95 -6 26 -5 50 4 75 7 21 18 62 23 91 8 43 7 55
-4 59 -18 7 -18 23 -1 23 8 0 22 26 32 61 11 34 28 68 41 78 12 9 48 58 80
107 32 49 62 91 66 92 4 2 6 7 3 12 -9 14 27 74 65 110 59 55 108 125 136 194
l25 63 72 6 c40 4 117 9 172 13 55 3 126 12 158 20 32 8 78 14 101 14 24 0 68
5 97 10 30 6 134 11 232 10 127 0 200 4 257 16 44 9 87 13 96 10 39 -15 277
56 409 122 42 21 63 25 130 24 54 -1 101 4 145 18 40 12 103 20 166 22 105 4
134 14 134 48 0 21 -27 30 -90 30 l-45 0 30 16 c48 24 95 75 95 102 0 21 -4
24 -29 20 l-30 -4 25 29 c14 16 23 35 21 41 -6 17 -67 19 -85 3 -21 -17 -74
-29 -65 -14 4 6 22 24 40 40 25 22 33 37 31 56 -3 23 -7 26 -36 24 -19 0 -43
-10 -55 -20 -12 -11 -49 -27 -82 -37 -33 -10 -66 -21 -73 -24 -7 -2 -2 12 12
33 29 42 34 92 11 101 -25 10 -70 -15 -89 -49 -9 -18 -38 -48 -63 -67 -26 -19
-66 -53 -90 -74 -34 -30 -62 -44 -114 -58 -89 -22 -299 -26 -427 -7 -78 11
-108 11 -185 -1 -103 -15 -125 -15 -351 -5 -127 6 -158 5 -154 -5 3 -9 37 -14
122 -16 64 -2 143 -10 174 -18 52 -14 63 -13 127 4 78 22 187 25 285 9 35 -5
66 -12 68 -13 1 -2 -4 -24 -13 -50 -15 -42 -14 -98 0 -172 6 -25 -25 -41 -73
-38 -18 1 -35 -2 -38 -7 -3 -5 -10 -9 -15 -9 -6 0 -8 4 -5 9 9 14 -37 21 -53
8 -12 -9 -13 -9 -7 1 4 7 2 12 -8 12 -8 0 -18 -5 -21 -10 -4 -7 -12 -7 -18 -2
-16 11 -60 7 -65 -7 -2 -7 -21 -2 -51 14 -42 21 -51 22 -73 11 -16 -8 -31 -10
-39 -5 -10 6 -11 9 -1 9 6 0 12 11 12 25 0 14 -4 25 -9 25 -9 0 -72 -49 -119
-92 -12 -11 -26 -18 -29 -14 -7 6 1 13 75 68 50 37 53 48 13 43 -23 -3 -29 0
-24 11 3 7 1 14 -3 15 -43 5 -86 4 -89 -2 -6 -8 -103 -4 -113 5 -3 4 -19 -6
-36 -21 -17 -16 -24 -20 -17 -10 19 25 5 34 -19 12 -13 -12 -28 -16 -48 -12
-17 3 -35 1 -42 -6 -10 -9 -11 -9 -5 2 6 11 3 13 -13 9 -15 -4 -19 -2 -15 8 7
18 -11 18 -27 0 -6 -8 -18 -12 -27 -9 -8 3 -19 0 -24 -8 -7 -10 -11 -11 -17
-2 -9 15 -44 12 -55 -5 -5 -7 -12 -10 -18 -7 -5 4 -12 -1 -15 -10 -4 -9 -13
-14 -21 -11 -7 3 -16 -1 -19 -9 -3 -7 -12 -11 -20 -8 -8 3 -20 -2 -27 -11 -7
-8 -23 -17 -36 -18 -34 -4 -61 -33 -82 -87 l-17 -46 -6 45 c-12 86 -13 145 -4
220 10 91 21 123 55 173 l27 39 111 -4 c87 -3 118 -8 148 -25 44 -24 37 -34
-37 -52 -57 -14 -176 -68 -176 -80 0 -20 17 -18 71 10 33 16 59 26 59 23 0 -4
6 -2 13 4 6 6 30 13 52 17 22 4 47 14 56 21 8 8 44 16 80 20 86 7 109 12 109
25 0 6 -29 9 -77 8 -69 -2 -84 1 -131 26 -41 21 -72 29 -130 33 -43 2 -84 8
-93 13 -10 5 -39 2 -74 -8 -49 -14 -64 -15 -104 -4 -25 8 -52 14 -59 14 -9 0
-12 17 -10 61 l3 61 49 25 c26 14 79 53 116 85 54 47 72 71 85 110 57 166 -37
415 -194 516 -25 16 -52 29 -61 29 -9 0 -33 9 -55 20 -64 32 -131 27 -212 -17
-37 -20 -78 -46 -90 -58 -12 -12 -48 -30 -79 -41 -31 -10 -59 -25 -62 -32 -7
-19 18 -62 37 -63 9 -1 -2 -5 -24 -8 -32 -5 -40 -10 -38 -26 1 -11 -5 -24 -13
-28 -8 -4 -14 -19 -14 -33 0 -14 -9 -34 -20 -46 -11 -12 -18 -32 -17 -47 4
-34 62 -157 94 -199 l25 -34 -20 -61 c-19 -58 -20 -59 -33 -38 -8 12 -35 35
-61 51 -27 17 -48 34 -48 40 0 5 -10 20 -22 33 -25 24 -25 23 -27 72 -1 23 -6
35 -15 35 -10 0 -15 -19 -18 -67 -4 -64 -47 -191 -56 -165 -2 6 -9 9 -15 6 -7
-2 -27 11 -45 31 -24 25 -29 35 -18 35 9 0 16 5 16 10 0 14 -20 12 -54 -5 -40
-21 -56 -18 -26 5 32 24 20 37 -14 15 -32 -21 -34 -10 -4 22 17 18 19 26 10
35 -9 9 -12 9 -12 -1 0 -7 -5 -9 -11 -6 -7 5 -4 14 8 28 18 20 17 20 -4 15
-23 -6 -32 6 -13 17 16 10 12 35 -5 29 -10 -4 -15 0 -15 15 0 13 -6 21 -17 21
-15 0 -16 2 -3 10 9 6 11 13 5 18 -5 4 -10 22 -10 40 1 22 -4 32 -15 32 -9 0
-11 3 -4 8 11 8 12 51 0 70 -4 7 -4 17 -1 22 9 14 -8 12 -25 -2 -12 -11 -12
-10 -3 2 13 19 13 53 -1 62 -8 5 -7 8 1 8 12 0 13 63 1 75 -3 3 -20 -11 -37
-31 -18 -20 -34 -34 -37 -31 -3 2 13 22 35 44 26 27 36 44 31 54 -5 7 -4 21 1
32 8 15 5 23 -16 41 -21 18 -25 29 -21 59 6 47 -7 54 -33 20 l-21 -28 11 33
c6 17 15 35 20 38 12 7 11 44 -1 44 -5 0 -10 7 -10 16 0 14 -2 15 -17 3 -14
-12 -14 -10 1 14 19 28 11 36 -14 15 -8 -7 -6 -3 3 8 12 15 16 30 11 48 -3 14
-10 24 -14 21 -5 -3 -5 9 1 27 6 22 5 34 -2 39 -8 5 -8 8 0 13 6 4 9 19 6 34
-2 14 0 29 6 33 6 3 11 21 11 39 l1 32 66 -7 c36 -4 94 -9 129 -11 60 -4 63
-3 73 24 8 19 7 70 -1 174 -7 81 -9 155 -6 164 3 9 1 23 -5 30 -8 10 -7 17 4
28 8 8 18 12 21 8 4 -3 4 1 1 10 -4 11 6 24 34 44 42 31 61 60 61 98 0 21 6
24 52 30 28 4 59 11 67 15 9 5 54 11 101 15 47 3 126 12 175 21 91 14 222 23
227 15 2 -3 18 -35 36 -71 45 -91 119 -171 190 -205 31 -16 59 -31 62 -34 9
-11 175 -40 227 -40 32 0 78 10 120 26 37 14 76 26 85 27 9 1 15 4 13 7 -2 4
19 24 48 46 29 21 58 47 65 57 7 9 19 14 25 11 7 -4 9 -4 5 0 -4 5 8 30 27 56
45 64 66 138 66 237 0 96 -8 150 -27 178 -8 11 -14 30 -14 42 0 36 -80 124
-161 175 -132 85 -150 91 -279 94 -63 1 -124 0 -135 -3z m255 -104 c4 7 15 5
32 -3 15 -8 29 -11 33 -8 3 3 2 -5 -3 -18 -7 -19 -5 -32 11 -55 15 -21 16 -26
5 -17 -21 17 -59 7 -51 -14 8 -21 -20 -17 -51 7 -20 16 -24 24 -16 34 7 9 6
16 -5 25 -9 7 -14 19 -11 27 3 7 -1 13 -9 13 -7 0 -16 4 -19 9 -3 5 12 5 36
-1 27 -6 43 -5 48 1z m-64 -54 c9 -8 11 -15 6 -15 -5 0 -15 7 -22 15 -7 8 -9
15 -6 15 4 0 14 -7 22 -15z m272 -20 c-3 -3 -9 2 -12 12 -6 14 -5 15 5 6 7 -7
10 -15 7 -18z m-318 -35 c0 -5 -4 -10 -9 -10 -6 0 -13 5 -16 10 -3 6 1 10 9
10 9 0 16 -4 16 -10z m101 -67 c13 -16 12 -17 -3 -4 -10 7 -18 15 -18 17 0 8
8 3 21 -13z m-77 -34 c5 -5 -1 -6 -15 -3 -13 3 -36 8 -51 11 -16 3 -28 11 -28
19 0 11 8 11 43 -3 23 -9 46 -20 51 -24z m29 -49 c26 -13 47 -28 47 -32 0 -13
-9 -10 -63 28 -57 40 -55 40 16 4z m-43 -35 c0 -9 -6 -12 -16 -8 -13 5 -13 7
-2 14 17 11 18 11 18 -6z m-2602 -34 c-13 -8 -23 -10 -27 -4 -3 6 -13 13 -21
16 -9 3 -4 6 13 6 15 1 27 6 27 11 0 6 6 5 14 -2 11 -11 10 -15 -6 -27z m2425
22 c-7 -2 -19 -2 -25 0 -7 3 -2 5 12 5 14 0 19 -2 13 -5z m50 0 c-7 -2 -19 -2
-25 0 -7 3 -2 5 12 5 14 0 19 -2 13 -5z m-2551 -30 c10 -9 18 -21 18 -26 0 -6
-7 -2 -16 9 -14 17 -15 17 -10 1 3 -10 2 -16 -3 -13 -10 7 -22 46 -13 46 3 0
14 -7 24 -17z m165 11 c-3 -3 -12 -4 -19 -1 -8 3 -5 6 6 6 11 1 17 -2 13 -5z
m-67 -54 c5 0 20 -10 32 -22 l21 -21 -21 5 c-26 7 -29 -8 -5 -34 9 -10 11 -18
6 -18 -6 0 -13 -7 -17 -15 -3 -8 -2 -14 2 -14 17 3 32 -2 32 -10 0 -22 -42 5
-93 59 l-56 58 24 22 c13 12 28 19 34 15 6 -3 11 0 12 7 0 7 4 3 9 -9 5 -13
14 -23 20 -23z m30 14 c0 -2 -7 -4 -15 -4 -8 0 -15 4 -15 10 0 5 7 7 15 4 8
-4 15 -8 15 -10z m2433 -13 c-5 -20 -65 -39 -71 -21 -2 5 -14 3 -28 -6 -22
-15 -24 -15 -24 0 0 9 -4 16 -10 16 -5 0 -10 -7 -10 -15 0 -11 -11 -15 -42
-14 -24 1 -45 0 -48 -1 -18 -8 -80 -7 -75 1 4 5 0 9 -7 10 -38 3 -114 -3 -208
-16 -58 -8 -179 -19 -270 -25 -91 -7 -180 -15 -197 -20 -18 -5 -33 -5 -33 0 0
11 41 17 190 30 69 6 180 20 247 31 68 10 155 19 195 20 40 1 125 7 188 14 63
6 136 13 162 14 41 1 46 -1 41 -18z m-2683 -15 c0 -2 -7 -7 -16 -10 -8 -3 -12
-2 -9 4 6 10 25 14 25 6z m135 -47 c37 -38 37 -40 10 -23 -45 27 -65 46 -59
55 7 12 6 13 49 -32z m1458 -1 c30 -28 37 -42 42 -88 4 -30 7 -63 6 -74 0 -20
-38 -66 -55 -66 -6 0 -21 -15 -32 -33 -22 -34 -37 -39 -86 -31 -17 3 -25 10
-22 18 3 8 -4 16 -16 19 -17 4 -20 11 -15 26 7 22 -4 28 -21 11 -7 -7 -11 -6
-11 5 0 11 11 15 39 15 34 0 38 3 38 24 0 14 5 28 10 31 6 3 10 -3 10 -15 0
-12 6 -28 14 -36 13 -12 17 -10 32 15 10 17 22 27 28 24 6 -3 8 -3 4 2 -4 4
-1 23 7 42 23 54 -5 130 -43 116 -9 -4 -13 -2 -9 4 5 7 0 9 -13 6 -11 -3 -20
0 -20 6 0 6 17 11 39 11 30 0 47 -7 74 -32z m-187 -35 c15 -20 19 -63 6 -63
-4 0 -13 18 -19 40 -11 43 -8 50 13 23z m128 -4 c-3 -5 -10 -7 -15 -3 -5 3 -7
10 -3 15 3 5 10 7 15 3 5 -3 7 -10 3 -15z m-54 -20 c0 -10 -4 -19 -10 -19 -5
0 -10 12 -10 26 0 14 4 23 10 19 6 -3 10 -15 10 -26z m385 22 c-14 -12 -94
-21 -100 -11 -3 5 16 11 42 13 27 2 52 4 58 5 5 1 5 -1 0 -7z m58 2 c-7 -2
-19 -2 -25 0 -7 3 -2 5 12 5 14 0 19 -2 13 -5z m-575 -47 c2 -25 0 -36 -7 -31
-6 3 -9 10 -6 15 3 5 1 20 -5 35 -8 20 -7 26 2 23 7 -3 14 -22 16 -42z m342
24 c0 -5 -4 -10 -10 -10 -5 0 -10 5 -10 10 0 6 5 10 10 10 6 0 10 -4 10 -10z
m-1600 -21 c14 -11 19 -18 12 -14 -57 30 -65 35 -52 35 8 0 26 -10 40 -21z
m92 4 c10 -9 18 -21 18 -27 0 -6 -5 -3 -11 7 -5 9 -17 17 -24 17 -8 0 -15 5
-15 10 0 15 11 12 32 -7z m1048 -23 c0 -4 -42 -11 -92 -15 -108 -7 -464 -52
-520 -64 -23 -6 -40 -5 -44 1 -3 5 -4 11 -2 13 5 5 388 48 641 72 9 1 17 -2
17 -7z m300 -41 c-7 -11 -14 -18 -17 -15 -3 3 0 12 7 21 18 21 23 19 10 -6z
m-1370 -63 c0 -5 -7 -1 -15 10 -8 10 -14 24 -14 29 0 6 6 1 14 -9 8 -11 15
-24 15 -30z m1200 -17 c-7 -11 -14 -18 -17 -15 -8 8 5 36 17 36 7 0 7 -6 0
-21z m-1422 -87 c6 -18 -15 -14 -22 4 -4 10 -1 14 6 12 6 -2 14 -10 16 -16z
m86 -27 c-4 -8 -11 -15 -16 -15 -6 0 -5 6 2 15 7 8 14 15 16 15 2 0 1 -7 -2
-15z m1483 -81 c-3 -3 -12 -4 -19 -1 -8 3 -5 6 6 6 11 1 17 -2 13 -5z m3 -38
c0 -10 -7 -12 -22 -8 -21 5 -21 6 -2 13 10 4 20 8 22 8 1 1 2 -5 2 -13z m15
-76 c3 -5 -3 -10 -14 -10 -11 0 -23 5 -26 10 -3 6 3 10 14 10 11 0 23 -4 26
-10z m-52 -107 c-7 -2 -19 -2 -25 0 -7 3 -2 5 12 5 14 0 19 -2 13 -5z m-163
-565 c0 -6 -6 -5 -15 2 -8 7 -15 14 -15 16 0 2 7 1 15 -2 8 -4 15 -11 15 -16z
m994 -53 c8 -8 28 -15 44 -15 22 0 45 -15 95 -64 65 -61 83 -96 52 -96 -8 0
-15 -7 -15 -15 0 -8 -4 -15 -10 -15 -14 0 -89 -83 -90 -99 0 -9 8 -12 24 -9
l24 5 -20 -28 c-21 -28 -18 -49 7 -49 9 0 12 -6 9 -15 -4 -10 0 -15 11 -15 11
0 15 -5 12 -14 -4 -10 2 -18 16 -22 21 -7 20 -8 -8 -18 -43 -16 -75 -39 -75
-53 0 -17 47 -17 65 0 7 6 22 20 34 30 21 17 21 17 15 -10 -8 -32 -23 -55 -33
-49 -4 3 -25 1 -46 -4 -34 -8 -43 -6 -63 12 -17 17 -25 19 -34 10 -9 -9 -6
-16 13 -32 13 -11 29 -24 36 -30 16 -14 5 -80 -18 -106 -36 -40 -19 -48 21 -9
22 21 43 36 47 32 3 -4 -2 -14 -13 -22 -10 -8 -15 -15 -10 -15 5 0 2 -7 -5
-16 -7 -9 -14 -26 -14 -37 -1 -12 -2 -42 -3 -66 l-2 -43 -127 4 c-107 4 -136
8 -178 28 -62 29 -95 58 -88 76 7 20 85 54 122 54 16 0 33 5 36 10 4 6 10 8
15 5 5 -3 17 -1 27 4 10 6 35 13 56 16 20 3 37 10 37 15 0 6 8 10 17 10 9 0
13 3 10 7 -4 3 0 15 10 25 19 21 14 22 -39 6 -26 -8 -35 -14 -26 -20 10 -6 9
-8 -4 -8 -9 0 -18 -5 -20 -12 -3 -8 -12 -8 -36 3 -18 8 -32 17 -32 21 0 5 -7
8 -15 8 -10 0 -3 12 20 36 19 19 33 39 30 44 -3 5 -22 14 -43 20 -20 7 -53 24
-72 39 -19 15 -69 39 -110 55 -103 39 -105 40 -102 67 6 34 29 47 69 39 41
-10 54 7 25 31 l-21 17 21 6 c15 3 30 -2 44 -15 12 -11 40 -23 62 -26 33 -4
42 -2 51 15 11 21 6 52 -9 52 -4 0 -10 -7 -14 -15 -7 -20 -30 -10 -46 20 -12
22 -11 28 5 45 14 16 16 23 7 32 -7 7 -12 9 -12 4 0 -4 -6 -1 -14 7 -9 8 -26
12 -39 10 -53 -10 -34 17 33 47 38 18 77 41 86 51 18 20 40 26 28 8 -3 -6 -1
-14 5 -18 8 -6 8 -16 0 -41 -11 -29 -10 -35 6 -47 24 -17 49 -17 42 0 -8 22
30 13 57 -12 33 -31 46 -8 15 26 -23 25 -23 25 -2 12 32 -20 40 -3 12 27 -13
14 -17 23 -8 19 8 -3 23 -17 33 -30 20 -27 46 -33 46 -11 0 21 -68 76 -94 76
-28 0 -64 35 -44 43 27 11 87 6 102 -8z m-964 -38 c0 -2 -10 -12 -22 -23 l-23
-19 19 23 c18 21 26 27 26 19z m597 -203 c-3 -3 -12 -4 -19 -1 -8 3 -5 6 6 6
11 1 17 -2 13 -5z m663 -50 c0 -8 -5 -12 -10 -9 -6 4 -8 11 -5 16 9 14 15 11
15 -7z m-1270 -134 c-8 -5 -19 -10 -25 -10 -5 0 -3 5 5 10 8 5 20 10 25 10 6
0 3 -5 -5 -10z m1194 -9 c10 -11 16 -28 13 -38 -4 -15 -5 -15 -6 3 -1 26 -17
40 -51 47 l-25 4 26 2 c14 0 34 -8 43 -18z m-1168 -16 c-10 -8 -22 -12 -27
-10 -4 3 -10 -1 -12 -7 -4 -10 -6 -10 -6 0 -1 7 9 17 22 22 33 13 44 11 23 -5z
m20 -40 c-11 -8 -25 -15 -30 -15 -6 1 0 7 14 15 32 19 40 18 16 0z m721 -51
c-3 -3 -12 -4 -19 -1 -8 3 -5 6 6 6 11 1 17 -2 13 -5z m56 -21 c-7 -2 -21 -2
-30 0 -10 3 -4 5 12 5 17 0 24 -2 18 -5z m-773 -33 c-33 -26 -52 -25 -21 0 13
11 28 20 35 20 6 0 0 -9 -14 -20z m385 -18 c21 -50 23 -71 9 -83 -8 -6 -14
-17 -14 -23 0 -7 -23 -41 -51 -77 -67 -83 -75 -91 -55 -52 9 17 14 45 12 62
-2 19 5 48 19 74 13 23 28 61 35 84 13 42 32 48 45 15z m388 -47 c14 -6 25
-25 13 -25 -8 0 -76 31 -76 34 0 6 42 0 63 -9z m-773 -20 c-7 -9 -15 -13 -19
-10 -3 3 1 10 9 15 21 14 24 12 10 -5z m56 -34 c-8 -12 -46 -21 -46 -11 0 5 8
11 18 13 29 8 33 7 28 -2z m3154 -30 c0 -17 -78 -100 -86 -93 -5 4 -2 -2 6
-12 10 -13 10 -17 3 -12 -7 4 -13 2 -13 -3 0 -6 -6 -11 -13 -11 -7 0 -19 -21
-26 -47 -6 -26 -19 -56 -28 -65 -15 -17 -14 -18 9 -18 29 0 87 73 98 124 4 17
12 30 19 28 21 -4 154 41 194 67 20 13 40 21 44 18 8 -9 -17 -38 -28 -32 -4 3
-13 -4 -19 -16 -7 -11 -14 -18 -17 -15 -4 3 -15 -1 -25 -11 -10 -9 -18 -12
-18 -7 0 5 -5 2 -10 -6 -7 -11 -10 -11 -10 -2 0 7 -4 10 -10 7 -13 -8 -13 -65
-1 -65 5 0 12 6 14 13 3 7 6 4 6 -7 1 -14 6 -17 24 -12 12 4 33 9 47 12 14 3
40 14 58 25 18 10 41 19 50 19 14 -1 12 -5 -7 -21 -13 -11 -30 -18 -38 -15 -7
3 -13 -1 -13 -8 0 -9 -8 -12 -25 -8 -19 3 -25 0 -25 -14 0 -16 -2 -16 -10 -4
-11 18 -17 12 -20 -20 -4 -49 -3 -49 51 -35 27 7 55 18 62 23 7 5 23 13 37 17
46 14 3 -22 -48 -41 -26 -9 -53 -24 -59 -33 -11 -12 -13 -13 -13 0 -1 8 -8 1
-16 -15 -13 -24 -14 -30 -2 -37 11 -7 124 -15 151 -10 5 1 6 -3 2 -9 -3 -6
-48 -10 -103 -10 -68 0 -116 -6 -159 -20 -34 -10 -79 -17 -100 -15 -21 2 -41
4 -45 4 -4 1 -5 7 -2 14 3 9 -10 18 -38 26 -68 20 -78 34 -78 111 0 74 5 82
87 137 23 15 51 40 63 56 12 15 27 27 35 27 7 0 18 7 25 15 14 17 20 19 20 6z
m-2940 -5 c0 -2 -7 -9 -15 -16 -13 -11 -14 -10 -9 4 5 14 24 23 24 12z m-176
-102 c9 -8 16 -21 16 -27 0 -8 4 -7 12 1 15 15 38 16 38 1 0 -5 -5 -7 -12 -3
-7 4 -8 3 -4 -4 3 -6 -3 -16 -14 -22 l-21 -11 20 -18 c11 -10 17 -22 13 -26
-8 -10 11 0 53 28 30 19 29 18 -3 -10 -43 -38 -41 -50 6 -22 l37 22 -41 -39
c-52 -49 -144 -101 -144 -82 0 8 6 20 13 27 10 11 9 14 -1 18 -10 4 -10 8 -1
19 18 22 -2 16 -28 -8 -13 -12 -23 -17 -23 -10 0 6 14 22 32 36 18 14 29 28
25 32 -4 4 -17 -1 -29 -12 l-23 -19 20 25 c11 14 26 29 33 33 17 11 15 30 -3
23 -8 -3 -15 0 -15 6 0 6 -10 3 -21 -8 -17 -14 -15 -9 7 23 33 48 36 49 58 27z
m116 -8 c0 -2 -8 -10 -17 -17 -16 -13 -17 -12 -4 4 13 16 21 21 21 13z m570
-157 c-7 -11 -14 -18 -17 -15 -3 3 0 12 7 21 18 21 23 19 10 -6z m2147 -31
c-3 -8 -6 -5 -6 6 -1 11 2 17 5 13 3 -3 4 -12 1 -19z m-100 -35 c-3 -10 -5 -2
-5 17 0 19 2 27 5 18 2 -10 2 -26 0 -35z m-200 15 c-3 -8 -6 -5 -6 6 -1 11 2
17 5 13 3 -3 4 -12 1 -19z m96 2 c-3 -11 -7 -20 -9 -20 -2 0 -4 9 -4 20 0 11
4 20 9 20 5 0 7 -9 4 -20z m74 -12 c-3 -7 -5 -2 -5 12 0 14 2 19 5 13 2 -7 2
-19 0 -25z m-1228 -143 c-13 -13 -28 -25 -33 -25 -5 0 3 11 18 25 35 32 45 32
15 0z m98 -3 c-23 -25 -23 -50 0 -31 15 13 15 12 3 -8 -8 -11 -20 -19 -27 -16
-7 3 -25 -3 -41 -12 l-27 -18 18 21 c11 11 16 25 12 31 -3 7 0 8 9 5 9 -3 21
5 31 20 10 14 22 26 28 26 5 0 3 -8 -6 -18z m103 -17 c-18 -19 -20 -25 -8 -25
9 0 22 10 31 23 14 21 15 21 14 2 -1 -11 5 -21 13 -21 8 -1 21 -2 28 -3 20 -2
13 -15 -18 -33 -17 -10 -30 -13 -30 -6 0 5 -7 8 -15 5 -8 -4 -17 -2 -21 4 -4
7 -12 5 -22 -4 -10 -8 -24 -17 -32 -21 -8 -4 -5 1 8 10 27 20 29 39 3 24 -11
-5 -27 -7 -36 -4 -23 9 0 32 29 29 15 -2 33 6 47 21 12 13 25 24 27 24 3 0 -5
-11 -18 -25z m355 -4 c7 -12 -12 -24 -25 -16 -11 7 -4 25 10 25 5 0 11 -4 15
-9z m-535 -15 c0 -2 -8 -10 -17 -17 -16 -13 -17 -12 -4 4 13 16 21 21 21 13z
m-283 -111 c-12 -9 -14 -14 -5 -23 7 -7 18 -12 24 -12 9 0 2 -24 -18 -70 l-31
-70 -38 33 c-20 17 -42 48 -48 67 -14 46 -14 50 4 50 8 0 15 5 15 10 0 6 9 10
20 10 11 0 20 4 20 8 0 5 16 9 36 9 30 0 34 -2 21 -12z m-1276 -596 c-5 -13
-10 -19 -10 -12 -1 15 10 45 15 40 3 -2 0 -15 -5 -28z m28 -16 c-14 -59 -27
-99 -28 -84 -1 12 7 45 25 109 8 29 11 8 3 -25z m23 -36 c-9 -37 -20 -67 -23
-67 -7 0 0 33 21 103 19 63 20 38 2 -36z m44 47 c-3 -9 -6 -25 -6 -37 0 -13
-4 -17 -9 -11 -12 11 -2 64 11 64 6 0 7 -7 4 -16z m44 -1 c0 -17 -37 -123 -44
-130 -5 -4 -6 3 -2 17 3 14 9 46 13 73 4 30 11 47 19 47 8 0 14 -3 14 -7z
m210 -26 c61 -19 76 -27 78 -45 2 -12 -1 -22 -7 -22 -5 0 -15 -24 -21 -53 -7
-29 -19 -61 -26 -72 -14 -19 -16 -19 -82 -1 -82 21 -88 27 -73 64 10 24 16 28
42 24 16 -2 29 0 27 4 -4 18 14 54 27 54 23 0 26 -17 4 -23 -12 -3 -18 -10
-14 -17 11 -17 -4 -60 -20 -60 -8 0 -15 7 -15 15 0 8 -7 15 -15 15 -21 0 -19
-30 3 -46 30 -23 67 -17 83 14 7 15 21 38 31 51 25 33 23 44 -11 64 -40 23
-81 22 -88 -2 -3 -11 -11 -17 -18 -15 -10 4 -10 13 -2 40 6 19 13 34 16 34 3
0 40 -10 81 -23z m-148 -34 c-15 -32 -17 -33 -20 -14 -5 31 4 51 23 51 13 0
12 -5 -3 -37z m-47 -15 c-7 -43 -20 -67 -30 -56 -5 5 26 98 33 98 2 0 1 -19
-3 -42z m-82 -28 c-3 -11 -7 -20 -9 -20 -2 0 -4 9 -4 20 0 11 4 20 9 20 5 0 7
-9 4 -20z m100 -20 c-3 -12 -8 -19 -11 -16 -5 6 5 36 12 36 2 0 2 -9 -1 -20z
m335 -29 c60 -69 45 -87 -69 -83 l-36 2 20 60 c18 53 22 60 41 54 12 -3 31
-18 44 -33z m160 -63 c-4 -39 5 -51 16 -22 3 9 6 24 6 35 0 10 5 19 10 19 10
0 7 -49 -5 -87 -5 -15 -43 -17 -63 -4 -18 11 3 98 25 98 11 0 14 -10 11 -39z
m92 -13 c0 -47 -9 -65 -32 -65 -18 0 -19 4 -14 38 11 61 16 71 32 65 8 -3 14
-19 14 -38z m-146 8 c-8 -34 -24 -54 -24 -30 0 15 20 57 28 57 1 0 -1 -12 -4
-27z m200 -15 c-10 -63 -17 -78 -32 -69 -18 11 4 111 24 111 11 0 13 -9 8 -42z
m-260 -22 c-10 -8 -21 -12 -23 -10 -3 2 4 11 15 18 10 8 21 12 23 10 3 -2 -4
-11 -15 -18z m249 -213 c-7 -2 -19 -2 -25 0 -7 3 -2 5 12 5 14 0 19 -2 13 -5z
m33 -149 c18 -14 18 -14 -6 -3 -31 14 -36 19 -24 19 6 0 19 -7 30 -16z m8
-113 c4 -5 -3 -7 -14 -4 -23 6 -26 13 -6 13 8 0 17 -4 20 -9z m-49 -161 c3 -5
1 -10 -4 -10 -6 0 -11 5 -11 10 0 6 2 10 4 10 3 0 8 -4 11 -10z m-728 -1322
c-2 -29 -3 -6 -3 52 0 58 1 81 3 53 2 -29 2 -77 0 -105z m-8 -637 c-3 -6 -10
-7 -18 -2 -7 5 -10 14 -6 21 9 14 29 -2 24 -19z m-42 -3 c-3 -8 -6 -5 -6 6 -1
11 2 17 5 13 3 -3 4 -12 1 -19z m167 -134 c3 -116 17 -211 35 -224 3 -3 13
-25 22 -50 10 -25 20 -52 23 -61 5 -12 -8 -20 -61 -37 -37 -12 -93 -26 -124
-31 -35 -6 -77 -22 -110 -44 -92 -59 -212 -118 -218 -109 -3 6 -33 12 -66 15
-33 4 -62 6 -64 7 -2 0 7 9 20 19 13 11 21 23 17 27 -4 4 -14 1 -22 -6 -14
-11 -14 -9 -1 18 9 16 26 33 38 36 13 3 33 14 46 25 21 18 43 22 176 33 35 3
37 20 3 29 -27 7 -11 16 36 21 39 4 47 28 9 29 l-28 2 29 4 c16 3 38 13 49 24
l21 19 -28 0 c-24 0 -26 2 -16 15 8 9 22 12 41 8 18 -3 29 -1 29 6 0 6 -11 11
-24 11 -14 0 -28 5 -32 11 -4 7 6 10 32 7 27 -2 38 1 37 10 -2 6 4 12 12 12 8
0 15 5 15 10 0 6 -11 10 -25 10 -13 0 -32 9 -42 19 -10 11 -31 21 -48 23 -18
2 -31 10 -33 20 -3 16 -1 16 26 3 40 -20 92 -30 92 -17 0 5 -12 13 -27 17
l-28 8 25 7 c25 6 25 6 4 18 -11 6 -33 13 -49 16 -43 8 -43 17 1 15 64 -2 71
0 44 16 -25 14 -25 14 -2 15 35 0 26 20 -10 21 l-33 1 30 7 c17 4 29 12 28 19
-2 7 2 12 8 12 5 0 8 4 5 9 -4 5 12 12 34 16 22 4 40 10 40 15 0 8 52 30 58
25 2 -2 5 -61 6 -131z m1318 91 c4 -16 1 -25 -8 -25 -17 0 -27 17 -20 35 8 23
23 18 28 -10z m-1572 -25 c0 -5 -2 -10 -4 -10 -3 0 -8 5 -11 10 -3 6 -1 10 4
10 6 0 11 -4 11 -10z m1530 0 c0 -5 -4 -10 -10 -10 -5 0 -10 5 -10 10 0 6 5
10 10 10 6 0 10 -4 10 -10z m-1473 -6 c-3 -3 -12 -4 -19 -1 -8 3 -5 6 6 6 11
1 17 -2 13 -5z m1446 -51 c-7 -2 -19 -2 -25 0 -7 3 -2 5 12 5 14 0 19 -2 13
-5z m-23 -37 c14 -3 3 -3 -23 -2 -27 2 -54 9 -60 15 -7 7 -1 8 24 1 19 -5 45
-11 59 -14z m83 -33 c-7 -2 -19 -2 -25 0 -7 3 -2 5 12 5 14 0 19 -2 13 -5z
m-136 -17 c-3 -7 0 -19 6 -25 8 -8 8 -11 0 -11 -11 0 -23 22 -23 41 0 5 5 9
11 9 6 0 9 -6 6 -14z m173 -15 c0 -8 -6 -11 -16 -7 -9 3 -42 6 -75 6 -32 0
-59 4 -59 9 0 5 34 8 75 8 56 -2 75 -5 75 -16z m-72 -28 c-16 -2 -40 -2 -55 0
-16 2 -3 4 27 4 30 0 43 -2 28 -4z m52 -3 c0 -5 -2 -10 -4 -10 -3 0 -8 5 -11
10 -3 6 -1 10 4 10 6 0 11 -4 11 -10z m-32 -27 c-10 -2 -28 -2 -40 0 -13 2 -5
4 17 4 22 1 32 -1 23 -4z m-1462 -21 c-10 -2 -22 0 -28 6 -6 6 0 7 19 4 21 -5
23 -7 9 -10z m-86 4 c0 -3 -4 -8 -10 -11 -5 -3 -10 -1 -10 4 0 6 5 11 10 11 6
0 10 -2 10 -4z m1500 -6 c18 -12 2 -12 -25 0 -13 6 -15 9 -5 9 8 0 22 -4 30
-9z m-2260 -10 c0 -5 -4 -10 -10 -10 -5 0 -10 5 -10 10 0 6 5 10 10 10 6 0 10
-4 10 -10z m-155 -20 c3 -5 1 -10 -4 -10 -6 0 -11 5 -11 10 0 6 2 10 4 10 3 0
8 -4 11 -10z m166 -18 c-7 -2 -18 1 -23 6 -8 8 -4 9 13 5 13 -4 18 -8 10 -11z
m2299 -25 c0 -2 -15 -1 -34 1 -23 3 -36 10 -39 23 -5 18 -3 18 34 -2 21 -10
39 -21 39 -22z m69 27 c10 -9 -45 -3 -59 6 -11 7 -5 8 20 4 19 -4 37 -8 39
-10z m61 -29 c-8 -9 -29 -15 -56 -15 -63 0 -64 18 -2 23 29 2 57 4 62 5 5 1 3
-5 -4 -13z m-2254 -23 c-10 -2 -22 0 -28 6 -6 6 0 7 19 4 21 -5 23 -7 9 -10z
m91 12 c-3 -3 -12 -4 -19 -1 -8 3 -5 6 6 6 11 1 17 -2 13 -5z m49 -12 c-10 -2
-22 0 -28 6 -6 6 0 7 19 4 21 -5 23 -7 9 -10z m401 12 c-3 -3 -12 -4 -19 -1
-8 3 -5 6 6 6 11 1 17 -2 13 -5z m48 -4 c18 -8 17 -9 -7 -9 -16 -1 -28 4 -28
9 0 12 8 12 35 0z m1532 -20 c11 0 14 -6 10 -21 -3 -12 0 -22 9 -26 14 -5 10
-23 -6 -23 -8 0 -41 73 -39 88 0 4 3 1 6 -5 2 -7 12 -13 20 -13z m-1737 -2 c0
-15 -60 -19 -81 -4 -20 14 -19 15 30 13 28 -1 51 -5 51 -9z m87 6 c-3 -3 -12
-4 -19 -1 -8 3 -5 6 6 6 11 1 17 -2 13 -5z m-37 -24 c0 -5 -15 -10 -32 -9 -28
0 -30 2 -13 9 28 12 45 12 45 0z m1800 -10 c0 -5 -4 -10 -10 -10 -5 0 -10 5
-10 10 0 6 5 10 10 10 6 0 10 -4 10 -10z m-1985 -10 c3 -6 -1 -7 -9 -4 -18 7
-21 14 -7 14 6 0 13 -4 16 -10z m2035 -40 c0 -5 -11 -10 -24 -10 -14 0 -28 5
-31 10 -4 6 7 10 24 10 17 0 31 -4 31 -10z m-29 -30 c21 0 40 -4 43 -9 8 -12
-106 -2 -118 10 -6 5 -19 1 -31 -11 l-22 -20 5 29 4 29 40 -14 c22 -8 58 -14
79 -14z m97 -76 c23 -36 42 -44 42 -19 0 8 7 16 15 17 8 0 20 1 26 2 11 1 27
-25 67 -109 11 -22 34 -53 52 -70 40 -38 58 -72 64 -122 5 -38 4 -40 -29 -50
-34 -11 -37 -10 -89 41 -30 29 -56 59 -58 66 -3 15 -23 40 -31 40 -3 0 -4 -8
-2 -17 2 -10 4 -21 4 -25 1 -4 23 -30 51 -58 27 -28 40 -45 27 -39 -12 7 -41
31 -64 55 -34 34 -43 50 -43 78 0 19 -4 38 -10 41 -6 4 -10 -7 -10 -27 l0 -33
-20 25 c-11 14 -20 41 -20 63 0 20 -4 37 -10 37 -18 0 -8 70 12 81 22 12 15
29 -13 29 -10 0 -19 4 -19 9 0 5 -15 7 -32 6 -18 -2 -37 0 -43 3 -15 9 32 18
74 14 28 -3 41 -11 59 -38z m-146 -44 c-16 -38 -32 -52 -32 -30 0 18 30 70 40
70 4 0 1 -18 -8 -40z m49 -7 c-12 -20 -14 -14 -5 12 4 9 9 14 11 11 3 -2 0
-13 -6 -23z m30 -35 c-4 -31 -3 -67 1 -79 7 -19 6 -20 -7 -9 -18 15 -20 73 -4
119 15 43 17 36 10 -31z m-44 -20 c-3 -7 -5 -2 -5 12 0 14 2 19 5 13 2 -7 2
-19 0 -25z m-373 -73 c3 -9 0 -15 -9 -15 -16 0 -27 14 -18 24 10 10 21 7 27
-9z m273 -31 c-3 -3 -12 -4 -19 -1 -8 3 -5 6 6 6 11 1 17 -2 13 -5z m170 -30
c0 -18 1 -18 -28 12 l-24 26 26 -12 c14 -6 26 -18 26 -26z m47 -20 c5 -14 4
-15 -9 -4 -17 14 -19 20 -6 20 5 0 12 -7 15 -16z"/>
<path d="M4766 7773 c-11 -11 -6 -21 14 -26 12 -3 20 0 20 8 0 14 -25 27 -34
18z"/>
<path d="M4818 7758 c5 -5 16 -8 23 -6 8 3 3 7 -10 11 -17 4 -21 3 -13 -5z"/>
<path d="M2085 7379 c-7 -10 45 -62 53 -54 2 2 1 13 -3 24 -8 26 -41 46 -50
30z"/>
<path d="M4113 5537 c-14 -23 75 -37 107 -17 13 8 13 10 0 14 -29 10 -102 11
-107 3z"/>
<path d="M6488 5163 c-2 -32 -12 -73 -21 -92 -21 -42 -22 -57 -2 -41 8 7 23
40 34 73 l18 60 14 -47 c15 -50 35 -64 26 -17 -8 38 -47 121 -57 121 -4 0 -9
-26 -12 -57z"/>
<path d="M3466 906 c-9 -14 -16 -33 -16 -43 1 -17 2 -16 15 1 13 17 15 18 15
3 0 -9 -9 -22 -20 -29 -11 -7 -20 -16 -20 -20 0 -15 21 -8 45 17 28 27 33 66
11 84 -10 9 -17 6 -30 -13z"/>
<path d="M3450 6559 c0 -45 18 -118 33 -134 9 -10 0 152 -10 168 -12 19 -23 3
-23 -34z"/>
<path d="M3476 6288 c-4 -68 -3 -115 3 -121 12 -12 18 13 26 115 7 76 1 118
-14 118 -4 0 -11 -50 -15 -112z"/>
<path d="M3305 6202 c-6 -25 10 -46 27 -36 4 3 8 0 8 -7 0 -8 4 -8 15 1 22 18
18 33 -14 52 -29 16 -29 16 -36 -10z"/>
<path d="M3485 6109 c-4 -5 5 -34 19 -63 14 -29 26 -56 26 -60 0 -4 9 -19 20
-34 13 -18 26 -68 40 -154 11 -70 20 -130 20 -133 0 -3 7 -5 15 -5 18 0 18
-11 -4 135 -17 103 -26 133 -65 209 -25 49 -46 95 -46 102 0 16 -16 18 -25 3z"/>
<path d="M4543 5003 c-14 -5 -18 -33 -5 -33 4 0 13 5 20 12 22 22 14 33 -15
21z"/>
<path d="M2110 1060 c0 -5 7 -10 15 -10 8 0 15 5 15 10 0 6 -7 10 -15 10 -8 0
-15 -4 -15 -10z"/>
<path d="M2055 1050 c3 -5 12 -7 20 -3 21 7 19 13 -6 13 -11 0 -18 -4 -14 -10z"/>
<path d="M2300 1052 c0 -10 70 -25 79 -17 7 8 -2 13 -41 20 -23 4 -38 3 -38
-3z"/>
<path d="M1805 1040 c4 -6 11 -8 16 -5 14 9 11 15 -7 15 -8 0 -12 -5 -9 -10z"/>
<path d="M2220 1040 c0 -5 11 -10 25 -10 14 0 25 5 25 10 0 6 -11 10 -25 10
-14 0 -25 -4 -25 -10z"/>
<path d="M1850 1030 c0 -5 7 -10 15 -10 8 0 15 5 15 10 0 6 -7 10 -15 10 -8 0
-15 -4 -15 -10z"/>
<path d="M2126 1031 c5 -5 25 -12 44 -16 33 -7 34 -6 15 9 -21 16 -76 23 -59
7z"/>
<path d="M2050 1020 c0 -5 7 -10 16 -10 8 0 12 5 9 10 -3 6 -10 10 -16 10 -5
0 -9 -4 -9 -10z"/>
<path d="M2415 1010 c4 -6 11 -8 16 -5 14 9 11 15 -7 15 -8 0 -12 -5 -9 -10z"/>
<path d="M2488 1013 c7 -3 16 -2 19 1 4 3 -2 6 -13 5 -11 0 -14 -3 -6 -6z"/>
<path d="M1939 996 c7 -9 17 -13 23 -10 5 3 15 1 22 -5 7 -6 21 -9 30 -5 9 3
16 1 16 -5 0 -6 8 -11 18 -11 10 0 23 -5 30 -12 6 -6 15 -8 19 -4 4 4 1 11 -7
17 -10 6 -4 7 20 3 39 -8 52 -14 27 -14 -9 0 -17 -4 -17 -10 0 -5 4 -10 9 -10
5 0 16 -3 25 -6 23 -9 20 12 -5 37 -17 17 -29 20 -60 15 -28 -4 -40 -2 -46 9
-5 9 -30 17 -63 21 -48 5 -53 4 -41 -10z"/>
<path d="M2098 1003 c7 -3 16 -2 19 1 4 3 -2 6 -13 5 -11 0 -14 -3 -6 -6z"/>
<path d="M2236 995 c29 -12 54 -10 54 5 0 5 -19 8 -42 8 l-42 0 30 -13z"/>
<path d="M2575 1001 c-3 -6 3 -12 14 -12 25 -2 30 -3 54 -14 10 -4 23 -3 28 2
7 7 -1 12 -23 16 -18 3 -40 8 -49 12 -10 3 -20 2 -24 -4z"/>
<path d="M2310 990 c-8 -5 -11 -12 -8 -16 10 -9 38 3 38 16 0 12 -10 13 -30 0z"/>
<path d="M2165 982 c6 -5 28 -13 50 -17 35 -6 45 4 12 12 -58 13 -71 15 -62 5z"/>
<path d="M2345 970 c-3 -5 9 -9 30 -8 23 1 31 4 23 9 -18 12 -46 11 -53 -1z"/>
<path d="M5020 861 c0 -15 53 -91 63 -91 12 0 2 27 -26 67 -22 32 -37 42 -37
24z"/>
<path d="M4358 543 c7 -3 16 -2 19 1 4 3 -2 6 -13 5 -11 0 -14 -3 -6 -6z"/>
<path d="M4440 530 c0 -5 5 -10 10 -10 6 0 10 5 10 10 0 6 -4 10 -10 10 -5 0
-10 -4 -10 -10z"/>
<path d="M4083 522 c7 -11 137 -15 137 -4 0 5 -32 10 -71 11 -39 1 -68 -2 -66
-7z"/>
<path d="M4230 509 c0 -5 16 -9 35 -9 19 0 35 4 35 8 0 4 -16 8 -35 9 -19 1
-35 -3 -35 -8z"/>
<path d="M4608 513 c6 -2 18 -2 25 0 6 3 1 5 -13 5 -14 0 -19 -2 -12 -5z"/>
<path d="M4658 503 c6 -2 18 -2 25 0 6 3 1 5 -13 5 -14 0 -19 -2 -12 -5z"/>
<path d="M4186 481 c-4 -5 -2 -12 3 -15 5 -4 12 -2 15 3 4 5 2 12 -3 15 -5 4
-12 2 -15 -3z"/>
<path d="M4223 460 c-1 -11 2 -18 8 -15 11 7 12 35 1 35 -4 0 -8 -9 -9 -20z"/>
</g>
</svg>
