<?xml version="1.0" standalone="no"?>
<!DOCTYPE svg PUBLIC "-//W3C//DTD SVG 20010904//EN"
 "http://www.w3.org/TR/2001/REC-SVG-20010904/DTD/svg10.dtd">
<svg version="1.0" xmlns="http://www.w3.org/2000/svg"
 width="275.000000pt" height="275.000000pt" viewBox="0 0 275.000000 275.000000"
 preserveAspectRatio="xMidYMid meet">
<metadata>
Created by potrace 1.11, written by Peter Selinger 2001-2013
</metadata>
<g transform="translate(0.000000,275.000000) scale(0.100000,-0.100000)"
fill="#000000" stroke="none">
<path d="M425 2580 c-16 -4 418 -9 965 -11 l995 -4 45 -27 c60 -35 94 -73 117
-128 17 -43 18 -99 18 -1030 0 -767 -3 -994 -13 -1027 -15 -49 -84 -124 -139
-150 -36 -17 -96 -18 -1038 -18 -931 0 -1003 1 -1037 17 -53 25 -106 74 -131
122 l-22 41 -5 995 c-3 547 -7 986 -8 975 -4 -31 -3 -1966 1 -2000 6 -46 6
-47 18 -40 6 4 9 1 7 -6 -8 -38 86 -131 160 -159 51 -19 78 -20 1050 -19 913
0 1001 2 1040 17 69 28 127 81 161 149 l31 61 0 1001 c0 987 0 1001 -21 1053
-19 48 -79 128 -103 137 -6 2 -18 9 -26 16 -8 7 -45 20 -81 29 -58 14 -171 16
-1010 15 -519 -1 -957 -5 -974 -9z"/>
<path d="M371 2475 c-18 -8 -38 -12 -44 -8 -5 3 -7 2 -4 -4 4 -6 -5 -21 -18
-33 -14 -13 -29 -40 -35 -59 -6 -23 -10 -392 -10 -1001 0 -915 1 -967 19
-1005 22 -49 48 -73 98 -91 50 -17 1924 -21 1988 -3 50 14 100 64 114 114 18
64 14 1938 -3 1988 -18 50 -42 76 -91 98 -38 18 -90 19 -1010 18 -827 0 -975
-2 -1004 -14z m432 -777 c-68 -70 -98 -192 -91 -361 4 -90 10 -125 31 -176 14
-36 24 -68 21 -73 -3 -5 -2 -7 3 -6 4 1 23 -12 42 -30 24 -23 28 -32 17 -32
-63 0 -126 83 -152 197 -23 106 -16 295 15 376 33 85 80 134 130 136 9 1 3
-12 -16 -31z m1025 13 c-138 -109 -143 -535 -7 -662 27 -26 29 -29 11 -29 -11
0 -28 7 -36 16 -9 8 -16 12 -16 8 0 -17 -34 24 -56 68 -110 218 -40 614 110
618 16 0 16 -2 -6 -19z m-915 -3 c48 -25 90 -99 107 -187 19 -103 21 -100 -72
-103 -89 -3 -97 -9 -84 -64 6 -23 10 -24 88 -24 l81 0 -6 -59 c-18 -167 -116
-281 -195 -226 -69 49 -106 184 -99 365 5 145 28 221 85 276 37 36 60 41 95
22z m1031 -9 c46 -36 89 -142 98 -244 l3 -30 -77 -3 c-75 -3 -78 -4 -84 -29
-12 -46 5 -58 89 -61 l76 -3 -5 -37 c-10 -66 -43 -166 -67 -202 -103 -150
-237 10 -237 285 0 237 104 402 204 324z m-1304 -325 c0 -15 -6 -24 -15 -24
-15 0 -21 40 -9 53 12 11 24 -3 24 -29z m1010 6 l0 -30 -382 2 -383 3 -3 22
c-4 27 -9 27 436 31 l332 2 0 -30z m481 13 c6 -6 9 -19 6 -27 -9 -23 -225 -24
-233 -1 -14 35 1 40 109 40 68 0 110 -4 118 -12z"/>
<path d="M1859 1509 c-22 -22 -39 -81 -39 -134 0 -83 38 -163 72 -150 15 6 14
10 -5 43 -31 52 -30 163 1 215 12 21 22 39 22 41 0 10 -37 -1 -51 -15z m15
-21 c-27 -52 -30 -144 -6 -207 20 -51 20 -52 2 -36 -29 26 -44 117 -31 183 6
31 18 64 28 74 24 26 26 22 7 -14z"/>
</g>
</svg>
